<svg width="87" height="23" viewBox="0 0 87 23" fill="none" xmlns="http://www.w3.org/2000/svg">
<path d="M2.13776 5.23688C1.89341 5.23688 1.76405 5.33749 1.76405 5.55309C1.77842 5.9843 1.89341 6.4155 2.08026 6.80359C2.62645 7.91034 3.69009 8.51403 5.14181 8.51403C6.59353 8.51403 7.67154 7.8816 7.98776 6.74609C8.08837 6.40113 8.21773 6.28614 8.46208 6.28614C8.69206 6.28614 8.89329 6.473 8.89329 6.71735C8.89329 6.73172 8.89329 6.74609 8.89329 6.74609C8.79267 7.20604 8.57707 7.63725 8.26085 7.99658C7.5853 8.81587 6.52166 9.21833 5.0412 9.21833C2.33898 9.21833 0.714783 7.68037 0.714783 5.07877C0.714783 2.47717 2.33898 0.924837 4.99808 0.924837C6.85225 0.924837 8.17461 1.71538 8.72081 3.12398C8.90766 3.67017 9.02265 4.25948 9.0514 4.83442C9.0514 5.10752 8.90766 5.2225 8.59144 5.2225L2.13776 5.23688ZM7.65717 4.54695C7.87277 4.54695 7.98776 4.46071 7.98776 4.27386C7.94464 3.52644 7.59968 2.83651 7.03911 2.33344C6.4498 1.84474 5.688 1.58602 4.91184 1.62914C4.09255 1.58602 3.28763 1.87348 2.66957 2.41968C2.15213 2.92275 1.83591 3.58393 1.74967 4.28823C1.74967 4.46071 1.89341 4.53258 2.13776 4.53258L7.65717 4.54695ZM12.9322 5.82619C13.3347 6.67423 13.6797 7.53664 13.9815 8.42779C14.2977 7.53664 14.657 6.67423 15.0739 5.82619L16.655 2.27594C16.6837 2.21845 16.6981 2.16096 16.7125 2.08909C16.7125 1.94535 16.5687 1.83037 16.3244 1.83037H15.7638C15.4763 1.83037 15.3039 1.701 15.3039 1.4854C15.3039 1.2698 15.4763 1.14044 15.7638 1.14044H18.4085C18.7104 1.14044 18.8828 1.2698 18.8828 1.4854C18.8828 1.701 18.7104 1.83037 18.4085 1.83037H18.1498C17.9773 1.80162 17.8048 1.90223 17.7617 2.06034L14.7433 8.68651C14.6427 8.90211 14.5421 8.95961 14.2833 8.95961H13.6365C13.3778 8.95961 13.2772 8.90211 13.191 8.68651L10.1725 2.07471C10.115 1.90223 9.95692 1.80162 9.78444 1.84474H9.43948C9.13764 1.84474 8.96515 1.71538 8.96515 1.49978C8.96515 1.28417 9.13764 1.15481 9.43948 1.15481H12.1992C12.4723 1.15481 12.6591 1.28417 12.6591 1.49978C12.6591 1.701 12.4867 1.84474 12.1992 1.84474H11.6386C11.4086 1.84474 11.2505 1.94535 11.2505 2.10346C11.2505 2.17533 11.2649 2.23282 11.308 2.29032L12.9322 5.82619ZM20.2771 5.23688C20.0327 5.23688 19.9034 5.33749 19.9034 5.55309C19.9177 5.9843 20.0327 6.4155 20.2196 6.80359C20.7658 7.91034 21.8294 8.51403 23.2811 8.51403C24.7329 8.51403 25.8109 7.8816 26.1271 6.74609C26.2277 6.40113 26.3571 6.28614 26.6014 6.28614C26.8314 6.28614 27.0182 6.473 27.0326 6.70297C27.0326 6.71735 27.0326 6.73172 27.0326 6.74609C26.9464 7.20604 26.7308 7.62287 26.4145 7.96784C25.739 8.78713 24.6897 9.18958 23.1949 9.18958C20.4927 9.18958 18.8828 7.65162 18.8828 5.05002C18.8828 2.44842 20.4783 0.924837 23.1374 0.924837C24.9916 0.924837 26.3139 1.71538 26.8601 3.12398C27.047 3.68454 27.1476 4.25948 27.1763 4.83442C27.1763 5.10752 27.0326 5.2225 26.7164 5.2225L20.2771 5.23688ZM25.7965 4.54695C26.0121 4.54695 26.1415 4.46071 26.1415 4.27386C26.0983 3.52644 25.7534 2.83651 25.1784 2.33344C24.5891 1.84474 23.8273 1.58602 23.0655 1.62914C22.2462 1.58602 21.4413 1.87348 20.8233 2.41968C20.3058 2.92275 19.9896 3.58393 19.9034 4.28823C19.9034 4.46071 20.0471 4.53258 20.2914 4.53258L25.7965 4.54695ZM30.1804 2.76464C30.281 2.31906 30.5397 1.90223 30.8991 1.62914C31.4884 1.18356 32.2214 0.939211 32.9689 0.939211C33.4575 0.939211 33.7594 1.11169 33.7594 1.37042C33.7881 1.52852 33.6732 1.67226 33.515 1.68663C33.5007 1.68663 33.4719 1.68663 33.4575 1.68663C33.3857 1.68663 33.2994 1.68663 33.2276 1.67226C33.1413 1.64351 33.0407 1.64351 32.9401 1.64351C32.4945 1.67226 32.049 1.77287 31.6321 1.93098C30.6978 2.31906 30.1804 3.25334 30.1804 4.59007V7.95346C30.1804 8.18344 30.281 8.28406 30.5685 8.28406H31.6321C31.934 8.28406 32.1064 8.42779 32.1064 8.62902C32.1064 8.83025 31.934 8.98836 31.6321 8.98836H28.0962C27.7944 8.98836 27.6219 8.84462 27.6219 8.64339C27.6219 8.44216 27.7944 8.28406 28.0962 8.28406H28.858C29.1455 8.28406 29.2461 8.18344 29.2461 7.95346V2.20407C29.2461 1.9741 29.1455 1.85911 28.858 1.85911H28.0675C27.7657 1.85911 27.5932 1.72975 27.5932 1.51415C27.5932 1.29855 27.7657 1.16919 28.0675 1.16919H29.7492C30.051 1.16919 30.1804 1.28417 30.1804 1.55727V2.76464ZM38.747 6.83233C38.8045 6.94732 38.9051 7.1773 39.0057 7.42165C39.1063 7.68037 39.1782 7.85285 39.2932 8.06845C39.3938 7.79536 39.48 7.59413 39.5375 7.49351L39.825 6.91857L41.981 2.29032C42.0098 2.23282 42.0241 2.16096 42.0385 2.08909C42.0385 1.94535 41.8948 1.83037 41.6504 1.83037H41.0324C40.7305 1.83037 40.558 1.701 40.558 1.4854C40.558 1.2698 40.7305 1.14044 41.0324 1.14044H43.6483C43.9214 1.14044 44.1083 1.2698 44.1083 1.4854C44.1083 1.701 43.9358 1.83037 43.6483 1.83037H43.4327C43.2603 1.80162 43.1021 1.88786 43.0447 2.04597L39.2644 9.9945C38.5026 11.5756 38.0139 11.9637 36.7778 11.9637C36.016 11.9637 35.5561 11.7768 35.5561 11.4893C35.5561 11.2881 35.7286 11.13 35.9298 11.13C36.0879 11.1444 36.246 11.1731 36.3897 11.2162C36.476 11.2306 36.5622 11.2306 36.6485 11.2306C37.4103 11.2306 37.8271 10.9144 38.2295 10.0232L38.6176 9.11772C38.6464 9.06022 38.6607 9.00273 38.6751 8.94523C38.6751 8.88774 38.6607 8.83025 38.6176 8.77275L35.3117 2.01722C35.2255 1.83037 35.1536 1.80162 34.938 1.80162H34.6649C34.3631 1.80162 34.1906 1.67226 34.1906 1.45665C34.1906 1.24105 34.3631 1.11169 34.6649 1.11169H37.4246C37.7265 1.11169 37.899 1.24105 37.899 1.45665C37.899 1.67226 37.7265 1.80162 37.4246 1.80162H36.8641C36.6341 1.80162 36.4904 1.90223 36.4904 2.06034C36.4904 2.13221 36.5047 2.20408 36.5478 2.26157L38.747 6.83233ZM46.8536 2.6784C47.3711 1.5429 48.406 0.924837 49.8864 0.924837C50.7201 0.881716 51.5394 1.18356 52.1431 1.7585C52.3155 1.98847 52.4449 2.23282 52.5168 2.52029C52.6893 2.07472 52.9911 1.68663 53.4079 1.44228C53.9829 1.08295 54.6728 0.910464 55.3483 0.939211C56.6707 0.939211 57.6625 1.39916 58.1224 2.23282C58.3524 2.72152 58.453 3.25334 58.4243 3.78516V7.96784C58.4243 8.19781 58.5249 8.29843 58.798 8.29843H59.5885C59.876 8.29843 60.0485 8.44216 60.0485 8.64339C60.0485 8.84462 59.876 9.00273 59.5885 9.00273H56.3976C56.0958 9.00273 55.9233 8.85899 55.9233 8.65776C55.9233 8.45653 56.0958 8.29843 56.3976 8.29843H57.1019C57.3894 8.29843 57.49 8.19781 57.49 7.96784V4.02951C57.49 2.44843 56.7426 1.67226 55.2477 1.67226C54.5147 1.64351 53.796 1.93098 53.2786 2.4628C52.8186 2.9515 52.6749 3.42582 52.6749 4.41759V7.98221C52.6749 8.21219 52.7755 8.3128 53.063 8.3128H53.7673C54.0691 8.3128 54.2416 8.45653 54.2416 8.65776C54.2416 8.85899 54.0691 9.0171 53.7673 9.0171H50.6195C50.3176 9.0171 50.1451 8.87337 50.1451 8.67214C50.1451 8.47091 50.3176 8.3128 50.6195 8.3128H51.3238C51.6112 8.3128 51.7119 8.21219 51.7119 7.98221V4.087C51.7119 3.06648 51.6256 2.6784 51.2663 2.29032C50.8207 1.84474 50.2026 1.60039 49.5702 1.64351C48.7078 1.61476 47.8885 2.00285 47.3711 2.6784C46.983 3.1671 46.868 3.6558 46.868 4.54695V7.93909C46.868 8.16907 46.9686 8.26968 47.2561 8.26968H48.0179C48.3197 8.26968 48.4922 8.41342 48.4922 8.61464C48.4922 8.81587 48.3197 8.97398 48.0179 8.97398H44.7982C44.5108 8.97398 44.3383 8.83025 44.3383 8.62902C44.3383 8.42779 44.5108 8.26968 44.7982 8.26968H45.5888C45.8619 8.26968 45.9625 8.16907 45.9625 7.93909V2.1897C45.9625 1.95973 45.8619 1.84474 45.5888 1.84474H44.7982C44.5108 1.84474 44.3383 1.71538 44.3383 1.49978C44.3383 1.28417 44.5108 1.15481 44.7982 1.15481H46.4799C46.7818 1.15481 46.9111 1.2698 46.9111 1.5429L46.8536 2.6784ZM66.7178 7.33541C66.0853 8.65777 65.0936 9.21833 63.3975 9.21833C61.4283 9.21833 60.2497 8.32718 60.2497 6.86108C60.2353 5.91243 60.8246 5.0644 61.7158 4.74818C62.4057 4.46071 63.3831 4.33135 64.9929 4.33135H65.9991C66.1141 4.33135 66.2291 4.33135 66.3297 4.33135C66.5597 4.33135 66.7178 4.23073 66.7178 4.04388V4.00076C66.7178 2.92275 66.6171 2.57779 66.1284 2.1897C65.5679 1.77287 64.878 1.58602 64.188 1.65788C62.6644 1.65788 61.7733 2.21845 61.6152 3.23897C61.5864 3.49769 61.3565 3.68454 61.0977 3.67017C60.8246 3.69892 60.5947 3.48331 60.5659 3.22459V3.21022C60.5659 2.53466 61.184 1.71538 61.9745 1.34167C62.6788 1.03982 63.4262 0.910463 64.188 0.953583C65.4529 0.953583 66.344 1.22668 66.9477 1.80162C67.4796 2.31906 67.6377 2.85088 67.6377 4.00076V7.98221C67.6377 8.21219 67.7383 8.3128 68.0257 8.3128H68.6438C68.9456 8.3128 69.1181 8.45653 69.1181 8.65776C69.1181 8.85899 68.9456 9.0171 68.6438 9.0171H67.1058C66.804 9.0171 66.689 8.90211 66.689 8.62902L66.7178 7.33541ZM61.2558 6.80359C61.2558 7.8816 62.1039 8.49966 63.5556 8.49966C64.7342 8.49966 65.6541 8.11157 66.1716 7.33541C66.3872 6.97607 66.5309 6.57361 66.5596 6.15678C66.6171 5.86931 66.6603 5.56747 66.6746 5.28C66.689 5.16501 66.6171 5.0644 66.5165 5.0069C65.956 4.94941 65.381 4.93503 64.8205 4.93503C62.4057 4.94941 61.2558 5.55309 61.2558 6.80359ZM72.0359 2.66403C72.4815 1.55727 73.5595 0.924837 75.0687 0.924837C77.0954 0.924837 78.2022 1.83036 78.2022 3.49769V7.93909C78.2022 8.16907 78.3028 8.26968 78.5902 8.26968H79.352C79.6395 8.26968 79.812 8.41342 79.812 8.61464C79.812 8.81587 79.6395 8.97398 79.352 8.97398H76.0893C75.7874 8.97398 75.6149 8.83025 75.6149 8.62902C75.6149 8.42779 75.7874 8.26968 76.0893 8.26968H76.8798C77.1673 8.26968 77.2679 8.16907 77.2679 7.93909V3.75641C77.2679 2.37656 76.4199 1.64351 74.8244 1.64351C73.114 1.64351 72.0647 2.6784 72.0647 4.37447V7.95346C72.0647 8.18344 72.1653 8.28406 72.4528 8.28406H73.2433C73.5452 8.28406 73.7176 8.42779 73.7176 8.62902C73.7176 8.83025 73.5452 8.98836 73.2433 8.98836H69.9805C69.6931 8.98836 69.5206 8.84462 69.5206 8.64339C69.5206 8.44216 69.6931 8.28406 69.9805 8.28406H70.7711C71.0298 8.28406 71.1448 8.18344 71.1448 7.95346V2.20407C71.1448 1.9741 71.0442 1.85911 70.7711 1.85911H69.9805C69.6931 1.85911 69.5206 1.72975 69.5206 1.51415C69.5206 1.29855 69.6931 1.16919 69.9805 1.16919H71.6622C71.9641 1.16919 72.0791 1.28417 72.0791 1.55727L72.0359 2.66403ZM11.4086 21.9676H8.43334C8.14587 21.9676 7.97339 21.8239 7.97339 21.6083C7.97339 21.3927 8.08837 21.2489 8.43334 21.2489H9.15201C9.31012 21.2489 9.32449 21.2058 9.32449 21.1052V14.6803C9.32449 14.5796 9.32449 14.5365 9.15201 14.5365H8.43334C8.14587 14.5365 7.97339 14.3928 7.97339 14.1772C7.97339 13.9472 8.08837 13.8178 8.43334 13.8178H11.9836C13.076 13.8178 13.7228 13.9616 14.269 14.3497C15.2895 15.1402 15.4907 16.6063 14.7002 17.6268C14.5421 17.828 14.3696 18.0005 14.154 18.1443C13.6078 18.4892 12.9754 18.6186 11.7967 18.6186H10.4456C10.2731 18.6186 10.2588 18.6617 10.2588 18.7623V21.1196C10.2588 21.2202 10.2588 21.2633 10.4456 21.2633H11.4086C11.7536 21.2633 11.8686 21.4502 11.8686 21.6226C11.8686 21.7807 11.6961 21.9676 11.4086 21.9676ZM10.46 14.5221C10.2875 14.5221 10.2731 14.5653 10.2731 14.6659V17.7131C10.2731 17.8137 10.2731 17.8568 10.46 17.8568H11.7824C12.7166 17.8568 13.2341 17.7418 13.6222 17.4687C14.0102 17.1669 14.2258 16.6925 14.1971 16.1895C14.2115 15.7295 14.0102 15.2839 13.6797 14.9821C13.2916 14.6371 12.7741 14.5078 11.768 14.5078H10.46V14.5221ZM22.7206 21.9676H16.4825C16.195 21.9676 16.0225 21.8239 16.0225 21.6083C16.0225 21.3927 16.1375 21.2489 16.4825 21.2489H17.2012C17.3593 21.2489 17.3736 21.2058 17.3736 21.1052V14.6803C17.3736 14.5796 17.3736 14.5365 17.2012 14.5365H16.4825C16.195 14.5365 16.0225 14.3928 16.0225 14.1772C16.0225 13.9472 16.1375 13.8178 16.4825 13.8178H19.5584C19.9034 13.8178 20.0184 14.0047 20.0184 14.1772C20.0184 14.3497 19.8459 14.5365 19.5584 14.5365H18.4948C18.3223 14.5365 18.3079 14.5796 18.3079 14.6803V21.1052C18.3079 21.2058 18.3079 21.2489 18.4948 21.2489H22.0738C22.2462 21.2489 22.2606 21.2058 22.2606 21.1052V19.6966C22.2319 19.4522 22.4187 19.251 22.6487 19.2223C22.893 19.1935 23.0943 19.3804 23.123 19.6104C23.123 19.6391 23.123 19.6678 23.123 19.6966V21.5939C23.1518 21.7807 23.008 21.9676 22.8212 21.982C22.7924 21.9676 22.7637 21.9676 22.7206 21.9676ZM33.3569 21.9676H30.9997C30.7122 21.9676 30.5397 21.8239 30.5397 21.6083C30.5397 21.3927 30.6547 21.2489 30.9997 21.2489H31.6034C31.6896 21.2489 31.7759 21.2346 31.7759 21.1627C31.7759 21.1339 31.7615 21.1052 31.7471 21.0764L30.9134 19.2366C30.856 19.136 30.8416 19.1217 30.7266 19.1217H27.0182C26.8745 19.1217 26.8745 19.1217 26.8314 19.2223L25.9977 21.0621C25.9833 21.0908 25.969 21.1196 25.969 21.1627C25.969 21.2489 26.1271 21.2489 26.1558 21.2489H26.7739C27.1188 21.2489 27.2338 21.4358 27.2338 21.6083C27.2338 21.7807 27.0614 21.9676 26.7739 21.9676H24.5029C24.2154 21.9676 24.0429 21.8239 24.0429 21.6083C24.0429 21.3927 24.1579 21.2489 24.5029 21.2489H24.8047C24.9341 21.2489 24.9485 21.2489 24.9916 21.1339L28.2687 14.0334C28.3262 13.8753 28.4843 13.7603 28.6568 13.7747H29.1743C29.4042 13.7747 29.5048 13.8322 29.5623 14.0334L32.8251 21.1196C32.8682 21.2202 32.8826 21.2346 33.0263 21.2346H33.3282C33.6732 21.2346 33.7881 21.4214 33.7881 21.5939C33.7881 21.7664 33.6444 21.9676 33.3569 21.9676ZM28.8868 14.8815C28.8437 14.8815 28.8005 14.8815 28.7574 14.9965L27.3488 18.2305C27.3488 18.2592 27.3488 18.288 27.3488 18.3311C27.3488 18.3886 27.4494 18.4174 27.5213 18.4174H30.281C30.3673 18.4174 30.4535 18.3886 30.4535 18.3311C30.4535 18.3024 30.4535 18.2736 30.4535 18.2449V18.2161L29.0593 14.9965C28.9874 14.9246 28.9587 14.8959 28.8868 14.8959V14.8815ZM38.7326 21.9676H35.4986C35.2111 21.9676 35.0386 21.8239 35.0386 21.6083C35.0386 21.3927 35.1536 21.2489 35.4986 21.2489H36.476C36.6341 21.2489 36.6485 21.2058 36.6485 21.1052V18.6904C36.6628 18.6473 36.6341 18.5898 36.6053 18.5611L33.7594 14.6228C33.7019 14.5365 33.6875 14.5365 33.5725 14.5365H33.3138C33.0263 14.5365 32.8539 14.3928 32.8539 14.1772C32.8539 13.9616 32.9688 13.8178 33.3138 13.8178H35.6711C36.016 13.8178 36.131 14.0047 36.131 14.1772C36.131 14.3497 35.9585 14.5365 35.6711 14.5365H35.0961C35.0386 14.5365 34.9236 14.5365 34.9236 14.6371C34.938 14.6802 34.9524 14.709 34.9668 14.7377L37.1515 17.8424L39.3507 14.7377C39.365 14.709 39.3938 14.6659 39.3938 14.6371C39.3938 14.5509 39.2932 14.5365 39.2213 14.5365H38.6751C38.3876 14.5365 38.2152 14.3928 38.2152 14.1772C38.2152 13.9616 38.3302 13.8178 38.6751 13.8178H40.9461C41.2911 13.8178 41.4061 14.0047 41.4061 14.1772C41.4061 14.3497 41.2336 14.5365 40.9461 14.5365H40.673C40.558 14.5365 40.5437 14.5365 40.4862 14.6228L37.6259 18.5611C37.5827 18.5898 37.5684 18.6473 37.5827 18.7048V21.1196C37.5827 21.2202 37.5827 21.2633 37.7696 21.2633H38.7326C39.0776 21.2633 39.1926 21.4502 39.1926 21.6226C39.1926 21.7807 39.0057 21.9676 38.7326 21.9676ZM51.4531 21.9676H48.7222C48.3053 21.9676 48.2622 21.7089 48.2622 21.6083C48.2622 21.4358 48.3772 21.2489 48.7222 21.2489H49.4408C49.6133 21.2489 49.6277 21.2058 49.6277 21.1052V18.3742C49.6277 18.2736 49.6277 18.2305 49.4408 18.2305H44.8701C44.6976 18.2305 44.6832 18.2736 44.6832 18.3742V21.1339C44.6832 21.2346 44.6832 21.2777 44.8701 21.2777H45.5888C45.9337 21.2777 46.0487 21.4645 46.0487 21.637C46.0487 21.752 46.0056 21.9963 45.5888 21.9963H42.8578C42.5703 21.9963 42.3978 21.8526 42.3978 21.637C42.3978 21.407 42.5128 21.2777 42.8578 21.2777H43.5765C43.7346 21.2777 43.749 21.2346 43.749 21.1339V14.6803C43.749 14.5796 43.749 14.5365 43.5765 14.5365H42.8578C42.5703 14.5365 42.3978 14.3928 42.3978 14.1772C42.3978 13.9472 42.5128 13.8178 42.8578 13.8178H45.5888C45.9337 13.8178 46.0487 14.0047 46.0487 14.1772C46.0487 14.2778 46.0056 14.5365 45.5888 14.5365H44.8701C44.6976 14.5365 44.6832 14.5796 44.6832 14.6803V17.3393C44.6832 17.44 44.6832 17.4831 44.8701 17.4831H49.4408C49.6133 17.4831 49.6277 17.44 49.6277 17.3393V14.6803C49.6277 14.5796 49.6277 14.5365 49.4408 14.5365H48.7222C48.3053 14.5365 48.2622 14.2778 48.2622 14.1772C48.2622 14.0047 48.3772 13.8178 48.7222 13.8178H51.4531C51.7981 13.8178 51.9131 14.0047 51.9131 14.1772C51.9131 14.3497 51.7406 14.5365 51.4531 14.5365H50.7345C50.562 14.5365 50.5476 14.5796 50.5476 14.6803V21.1052C50.5476 21.2058 50.562 21.2489 50.7345 21.2489H51.4531C51.7981 21.2489 51.9131 21.4358 51.9131 21.6083C51.9131 21.7807 51.7406 21.9676 51.4531 21.9676ZM56.9294 22.0682C55.6933 22.1257 54.5003 21.6658 53.6092 20.8177C52.8905 20.0703 52.5599 19.1504 52.5599 17.8424C52.5599 15.3127 54.256 13.6741 56.8863 13.6741C58.1081 13.6166 59.3154 14.0622 60.2066 14.9102C60.9396 15.7008 61.3133 16.7357 61.2558 17.8137C61.299 18.8342 60.9971 19.826 60.3934 20.6452C59.5167 21.6083 58.2374 22.1401 56.9294 22.0682ZM56.9294 14.4215C55.9089 14.364 54.9315 14.7809 54.256 15.5427C53.7673 16.2182 53.5229 17.0375 53.5517 17.8568C53.4942 18.7192 53.7529 19.5672 54.2847 20.2572C54.9746 20.9902 55.952 21.3927 56.9582 21.3495C57.9643 21.3927 58.9417 20.9758 59.6173 20.2284C60.1203 19.5241 60.3647 18.6761 60.3359 17.8137C60.3216 15.6864 59.0567 14.4359 56.9294 14.4359V14.4215ZM66.574 22.0682C65.5391 22.1257 64.5186 21.7232 63.8143 20.9615C63.3256 20.3721 63.0813 19.6104 63.1388 18.8486V14.6659C63.1388 14.5653 63.1388 14.5221 62.9663 14.5221H62.377C62.0895 14.5221 61.917 14.3784 61.917 14.1628C61.917 13.9328 62.032 13.8035 62.377 13.8035H65.0648C65.4098 13.8035 65.5248 13.9903 65.5248 14.1628C65.5248 14.3353 65.3523 14.5221 65.0648 14.5221H64.2455C64.073 14.5221 64.0587 14.5653 64.0587 14.6659V18.8917C64.0156 19.4522 64.1737 20.0128 64.5186 20.4728C65.0504 21.0621 65.8122 21.3927 66.6028 21.3495C68.2414 21.3495 69.1325 20.4296 69.1325 18.7911V14.6803C69.1325 14.5796 69.1325 14.5365 68.9457 14.5365H68.1407C67.8533 14.5365 67.6808 14.3928 67.6808 14.1772C67.6808 13.9472 67.7958 13.8178 68.1407 13.8178H70.7711C71.116 13.8178 71.231 14.0047 71.231 14.1772C71.231 14.3497 71.0586 14.5365 70.7711 14.5365H70.1961C70.0237 14.5365 70.0093 14.5796 70.0093 14.6803V18.7192C70.0093 19.7253 69.8512 20.3003 69.4056 20.8752C68.7875 21.6658 67.8389 22.0682 66.574 22.0682ZM75.5287 22.0682C74.3644 22.0682 73.5595 21.7232 73.0565 21.0333V21.4789C73.0852 21.7089 72.9271 21.9389 72.6828 21.9676C72.4528 21.9963 72.2228 21.8382 72.1941 21.5939C72.1941 21.5508 72.1941 21.522 72.1941 21.4789V19.4522C72.1653 19.2079 72.3378 18.9923 72.5821 18.9635C72.6109 18.9635 72.6396 18.9635 72.654 18.9635C72.8121 18.9635 72.9558 19.021 73.0421 19.1504C73.114 19.251 73.114 19.2654 73.1283 19.5385C73.2002 19.9841 73.4014 20.3865 73.7033 20.7171C74.1776 21.1483 74.7957 21.3639 75.4425 21.3352C76.6786 21.3352 77.5122 20.7171 77.5122 19.8116C77.5122 19.3947 77.2823 19.0067 76.9229 18.8054C76.5923 18.633 76.2474 18.5036 75.888 18.4174L74.7094 18.058C74.1345 17.9143 73.5739 17.6843 73.0565 17.3825C72.5534 17.0519 72.2515 16.4913 72.2659 15.8876C72.2659 14.5653 73.4158 13.6885 75.1406 13.6885C76.1899 13.6885 76.9804 14.0191 77.4547 14.6371V14.2922C77.426 14.0478 77.6128 13.8466 77.8428 13.8178C78.0872 13.7891 78.2884 13.9759 78.3172 14.2059C78.3172 14.2347 78.3172 14.2634 78.3172 14.2922V16.2182C78.3459 16.4626 78.1734 16.6782 77.9291 16.7069C77.9003 16.7069 77.8716 16.7069 77.8572 16.7069C77.6991 16.7069 77.5554 16.635 77.4691 16.5057C77.426 16.4338 77.426 16.4338 77.3254 15.8732C77.1673 15.0252 76.2905 14.4359 75.155 14.4359C74.0195 14.4359 73.1858 15.0252 73.1858 15.8589C73.1858 16.2613 73.4302 16.635 73.8039 16.7931C74.1632 16.9656 74.5369 17.095 74.925 17.1812L76.3049 17.5981C77.8285 18.0436 78.4465 18.6617 78.4465 19.7541C78.4321 21.1483 77.2679 22.0682 75.5287 22.0682ZM86.5532 21.9676H79.9701C79.6826 21.9676 79.5102 21.8239 79.5102 21.6083C79.5102 21.3927 79.6251 21.2489 79.9701 21.2489H80.6888C80.8469 21.2489 80.8613 21.2058 80.8613 21.1052V14.6803C80.8613 14.5796 80.8613 14.5365 80.6888 14.5365H79.9701C79.6826 14.5365 79.5102 14.3928 79.5102 14.1772C79.5102 13.9472 79.6251 13.8178 79.9701 13.8178H86.5532C86.74 13.7891 86.9125 13.9185 86.9412 14.1053C86.9412 14.1341 86.9412 14.1772 86.9412 14.2059V15.902C86.97 16.1463 86.7831 16.3476 86.5532 16.3763C86.3088 16.4051 86.1076 16.2182 86.0788 15.9882C86.0788 15.9595 86.0788 15.9307 86.0788 15.902V14.6803C86.0788 14.5796 86.0788 14.5365 85.892 14.5365H81.9536C81.7812 14.5365 81.7668 14.5796 81.7668 14.6803V17.3106C81.7668 17.4112 81.7668 17.4543 81.9536 17.4543H83.8366C84.009 17.4543 84.0234 17.4112 84.0234 17.3106V16.635C83.9947 16.4194 84.1384 16.2182 84.354 16.1895C84.3684 16.1895 84.3971 16.1895 84.4115 16.1895C84.6271 16.1895 84.814 16.3619 84.814 16.5775C84.814 16.5919 84.814 16.6207 84.814 16.635V19.0354C84.814 19.2654 84.6271 19.4379 84.4115 19.4379C84.1815 19.4379 84.009 19.251 84.009 19.0354V18.288C84.009 18.1874 84.009 18.1443 83.8222 18.1443H81.9393C81.7668 18.1443 81.7524 18.1874 81.7524 18.288V21.0764C81.7524 21.1771 81.7524 21.2202 81.9393 21.2202H85.8776C86.0501 21.2202 86.0645 21.1771 86.0645 21.0764V19.7685C86.0357 19.5241 86.2226 19.3229 86.4525 19.2941C86.6825 19.2654 86.8981 19.4522 86.9269 19.6822C86.9269 19.711 86.9269 19.7397 86.9269 19.7685V21.5508C86.9556 21.7376 86.8262 21.9101 86.625 21.9389C86.5963 21.9676 86.5675 21.9676 86.5532 21.9676ZM3.05766 19.7397C3.70446 19.7541 4.32252 19.4235 4.68186 18.8917L5.21368 19.4091C5.38616 19.5816 5.51552 19.7397 5.7455 19.7397C5.98985 19.7397 6.1767 19.5385 6.1767 19.3085C6.1767 19.0642 6.00422 18.9492 5.78862 18.7192L5.2568 18.1874L5.73112 17.2244H5.86048C6.09046 17.1956 6.26294 16.9944 6.23419 16.7644C6.21982 16.5632 6.06171 16.4051 5.86048 16.3907H5.38616C5.21368 16.3763 5.05557 16.4913 4.99808 16.6494L4.96933 16.7213L4.60999 17.5118L3.74758 16.6782C4.25066 16.4338 4.58125 15.9307 4.60999 15.3702C4.59562 14.6515 3.99193 14.0766 3.27326 14.0909H3.25889C2.51147 14.0622 1.89341 14.6515 1.86466 15.3989C1.86466 15.4133 1.86466 15.4277 1.86466 15.442C1.86466 15.8445 2.03714 16.2182 2.32461 16.5057L2.46835 16.6494C2.224 16.7788 2.00839 16.9513 1.80717 17.1381C1.53407 17.4112 1.36159 17.7849 1.36159 18.1874C1.40471 19.0929 2.1665 19.7972 3.07203 19.7541C3.04328 19.7397 3.05766 19.7397 3.05766 19.7397ZM3.23014 14.9102C3.51761 14.9102 3.73321 15.1402 3.73321 15.4277V15.442C3.73321 15.7008 3.56073 15.9164 3.18702 16.1751L3.01454 16.0026C2.84206 15.8589 2.74144 15.6433 2.74144 15.4133C2.74144 15.1402 2.95704 14.9102 3.23014 14.9102ZM3.01454 17.2675L4.02068 18.2449C3.74759 18.7192 3.50324 18.8917 3.11515 18.8917C2.68395 18.8917 2.32461 18.5323 2.32461 18.1011C2.32461 17.7705 2.52584 17.5118 3.01454 17.2675ZM5.7455 21.1914H1.76405C1.54844 21.1914 1.37596 21.3639 1.37596 21.5795C1.37596 21.7951 1.54844 21.9676 1.76405 21.9676H5.7455C5.9611 21.9676 6.13358 21.7951 6.13358 21.5795C6.13358 21.3783 5.9611 21.1914 5.7455 21.1914Z" fill="#333333"/>
</svg>
