<svg width="70" height="25" viewBox="0 0 70 25" fill="none" xmlns="http://www.w3.org/2000/svg">
<path d="M11.9612 15.1818C11.1037 15.1823 10.4726 15.6506 10.1184 16.0947C10.1184 16.0947 10.0019 16.2389 10.093 16.3013C10.1599 16.344 10.2339 16.2795 10.2339 16.2795C10.6167 15.929 11.0885 15.7494 11.6094 15.7494C12.7398 15.7494 13.6593 16.6691 13.6593 17.7996C13.6593 18.2672 13.4977 18.7246 13.2043 19.0874C12.6381 19.8045 11.796 20.214 10.8919 20.214H10.8879C9.26289 20.214 7.94093 18.892 7.94093 17.2673C7.94113 15.9989 8.41645 14.8454 9.27912 14.013C10.1164 13.2051 11.2414 12.7603 12.4468 12.7603C13.2297 12.7603 14.001 12.9645 14.6772 13.3509C15.4516 13.7908 15.9874 14.2803 16.3936 14.843C16.8456 15.4173 17.177 16.0344 17.3741 16.5862C17.4348 16.7875 17.4844 16.984 17.5236 17.1775L17.5272 17.1942C17.5767 17.4792 17.6616 17.9065 17.3305 18.108C17.1867 18.1903 16.9978 18.1245 16.8938 18.0498L16.8863 18.0445C15.6263 17.1463 14.7343 16.9542 14.2404 16.8446C13.6374 15.1125 11.9612 15.1818 11.9612 15.1818ZM10.2059 12.5407L10.2124 12.5377C11.0107 12.1539 12.069 11.8479 13.3919 11.8777C13.3919 11.8777 13.7077 11.8989 13.8688 11.5756C14.0257 11.2601 14.8771 9.69265 14.6914 7.84618C14.5058 5.99977 14.0068 5.8767 13.8734 4.78668C13.7189 3.5248 14.0906 2.10131 14.3975 1.56364C14.6862 1.05792 15.0058 0.546643 13.8955 0.627652C13.0423 0.689601 9.20393 0.833536 5.41238 3.96143L5.36734 3.99851C4.06027 5.13275 2.81301 6.82011 2.92145 9.55655C3.15665 14.1498 6.35488 16.6116 7.23418 17.1421C7.26862 13.6962 10.2059 12.5407 10.2059 12.5407ZM7.29295 17.8867C6.76809 17.653 3.57242 16.065 2.53687 11.7582C2.33721 10.7376 2.26044 9.98813 2.23611 9.47229C2.23611 9.47229 2.22017 8.87704 1.83795 8.87163C1.45051 8.86608 1.29044 9.35005 1.18129 9.61796L1.17921 9.62252C0.478348 11.2964 0.0297852 13.2293 0.0297852 15.5476C0.0297852 15.5853 0.0300694 15.6225 0.030337 15.6599V15.6718C0.030337 19.765 3.14522 20.6854 3.14522 20.6854C5.97735 21.6647 8.29122 20.8277 9.22888 20.5159C7.48559 19.6079 7.29295 17.8867 7.29295 17.8867ZM13.3817 19.9283C13.4439 20.319 13.5792 21.6565 12.9158 23.4493L12.9145 23.4527C12.8481 23.6107 12.8026 23.8303 12.9766 23.9562C13.2671 24.1659 13.7195 23.9114 13.976 23.8007L13.9769 23.7999C15.305 23.1686 16.3482 22.1336 16.9714 20.801L16.9786 20.7888C17.665 19.3528 16.1571 18.3832 16.1571 18.3832C15.2619 17.7957 14.6113 17.6506 14.3398 17.5643C14.4741 18.9832 13.3817 19.9283 13.3817 19.9283ZM12.7918 20.3798C12.7918 20.3798 11.9781 20.9267 10.8879 20.9139C10.5555 20.9139 10.2336 20.8693 9.92751 20.7859C9.16061 21.2137 6.75499 22.3299 3.60832 21.5118C3.60832 21.5118 3.39044 21.4484 3.26578 21.4123C3.26578 21.4123 2.70373 21.2162 2.56304 21.5717C2.42037 21.9327 2.76733 22.2511 2.97869 22.4479L2.97959 22.4496C4.66792 24.0352 6.97355 24.9773 9.47161 24.9773C9.96361 24.9773 10.2131 24.9704 10.6851 24.8971H10.6879C11.5797 24.7386 11.9252 24.0614 11.9252 24.0614C12.8353 22.2404 12.7888 20.7404 12.7918 20.3798ZM19.8035 2.32166V11.9498H20.9986V7.8326C20.9986 7.60184 21.0122 7.42541 21.0799 7.26243C21.3107 6.61042 21.9082 6.06707 22.682 6.06707C23.809 6.06707 24.2029 6.94991 24.2029 8.02281V11.9498H25.4001V7.88671C25.3977 5.61906 23.9859 5.07585 23.1031 5.07585C22.6549 5.07585 22.2339 5.19837 21.8807 5.41534C21.5145 5.60555 21.2157 5.91787 21.0257 6.25736H20.9986V2.32166H19.8035M29.7394 11.9498H29.7531C31.3115 11.9498 33.0051 10.8929 33.0051 8.45314C33.0051 6.46115 31.7314 5.092 29.8477 5.092C28.0458 5.092 26.5956 6.3798 26.5956 8.57532C26.5956 10.6489 27.9776 11.9498 29.7394 11.9498ZM29.7666 11.0554C28.615 11.0554 27.8016 9.97095 27.8016 8.53464C27.8016 7.28786 28.4113 5.98647 29.8073 5.98647C31.2165 5.98647 31.772 7.38286 31.772 8.49383C31.772 9.9848 30.918 11.0554 29.7802 11.0554H29.7666ZM35.7838 3.30249L34.6184 3.66852V5.06573H33.4621V5.97366H34.6184V9.72702C34.6184 10.4999 34.7542 11.0825 35.0795 11.4485C35.364 11.7604 35.811 11.9498 36.3666 11.9498C36.8276 11.9498 37.1933 11.8687 37.4237 11.7875L37.3693 10.8796C37.1933 10.9337 37.0036 10.9605 36.6783 10.9605C36.0145 10.9605 35.7838 10.4999 35.7838 9.68683V5.97366H37.4915V5.06573H35.7838V3.30249M39.8187 8.73774L44.4121 8.75119C44.4397 8.61566 44.453 8.42612 44.453 8.18185C44.453 6.97568 43.8973 5.09194 41.7561 5.09194C39.8456 5.09194 38.667 6.65047 38.667 8.64309C38.667 10.6082 39.8866 11.9498 41.8915 11.9498C42.9354 11.9498 43.667 11.7194 44.0872 11.5297L43.8707 10.6893C43.4367 10.8657 42.9083 11.0146 42.0546 11.0146C40.862 11.0145 39.8456 10.3506 39.8187 8.73774ZM39.8323 7.88401C39.9271 7.05702 40.4424 5.94593 41.6613 5.94593C42.9893 5.94593 43.3148 7.13845 43.301 7.88401H39.8323ZM45.9929 11.9498H47.1875V2.32166H45.9929V11.9498ZM19.8035 13.6486V23.2768C20.0976 23.2538 20.4492 23.207 20.8603 23.207C21.2119 23.207 21.5633 23.2492 21.9152 23.2768V13.6486C21.5633 13.6776 21.2119 13.7195 20.8603 13.7195C20.5089 13.7195 20.1573 13.6776 19.8058 13.6486M45.0793 13.6486V23.2768C45.43 23.2491 45.781 23.207 46.1316 23.207C46.4828 23.207 46.8334 23.2491 47.1875 23.2768V13.6486C46.8334 13.6775 46.4828 13.7193 46.1316 13.7193C45.781 13.7193 45.43 13.6775 45.0793 13.6486ZM39.4539 13.6486C42.4786 13.7612 43.7227 15.8683 43.7227 18.1871C43.7227 21.382 41.4749 23.2768 38.5777 23.2768H34.6187V13.6486H39.4539ZM41.3759 18.1727C41.3759 15.5147 40.1179 14.4688 38.1252 14.4688H36.7404V22.4566H37.9415C39.8926 22.4566 41.3759 21.4809 41.3759 18.1727ZM55.5984 18.9522V22.0954C55.2692 22.283 54.7756 22.4705 54.0901 22.4705C52.0063 22.4705 50.7997 21.0742 50.7997 18.7379C50.7997 16.4817 51.9239 14.4541 54.2136 14.4541C55.2967 14.4541 56.284 14.9248 56.9144 15.8245H57.1063C57.1615 15.3672 57.2993 14.8976 57.4905 14.468C56.4624 13.8903 55.3655 13.6486 54.1858 13.6486C51.0193 13.6486 48.5238 15.3539 48.5238 18.6977C48.5238 21.8535 51.1014 23.2768 53.9942 23.2768C55.201 23.2768 56.421 23.0082 57.6553 22.6721V18.9522C57.3126 18.9795 56.9697 19.0192 56.6267 19.0192C56.2841 19.0192 55.9412 18.9795 55.5984 18.9522ZM64.2991 13.6486C68.1249 13.6486 69.2527 16.3473 69.2662 18.4286C69.2798 21.0471 67.2657 23.2768 63.9769 23.2768C61.0094 23.2768 59.0099 21.5311 59.0099 18.4826C59.0099 15.8104 60.9559 13.6486 64.2991 13.6486ZM67.0382 18.174C67.0382 16.4413 66.2322 14.4537 64.2182 14.4537C62.3522 14.4537 61.2378 15.8646 61.2378 18.8719C61.2378 20.6179 62.0298 22.4702 64.0439 22.4702C66.1117 22.4702 67.0382 20.4025 67.0382 18.174ZM32.0558 13.6904C31.8759 13.6904 31.6245 13.6625 31.4441 13.6481V20.0953C29.5228 17.8813 27.4989 15.7848 25.569 13.6481H24.2012V23.2768C24.3766 23.2623 24.6257 23.2347 24.8062 23.2347C24.9862 23.2347 25.2186 23.2623 25.3992 23.2768V16.4587L26.9289 18.0609C28.4953 19.7336 29.8801 21.4625 31.4876 23.2758L32.6655 23.276V13.6481C32.4855 13.6625 32.2367 13.6904 32.0558 13.6904ZM68.1161 23.9054H68.2287C68.3633 23.9054 68.4685 23.8569 68.4685 23.7474C68.4685 23.6531 68.4018 23.5843 68.246 23.5843C68.188 23.5843 68.1473 23.5843 68.1161 23.589V23.9054ZM68.1161 24.5382H67.8889V23.4371C67.9733 23.4263 68.0698 23.409 68.2365 23.409C68.4248 23.409 68.5403 23.4371 68.6148 23.4951C68.6749 23.5453 68.7096 23.6189 68.7096 23.7362C68.7096 23.8621 68.6178 23.9539 68.4988 23.9898V23.9976C68.5992 24.0158 68.6546 24.1011 68.675 24.2643C68.6988 24.4331 68.7161 24.5006 68.736 24.5382H68.4936C68.4685 24.4941 68.4529 24.4002 68.4291 24.25C68.4153 24.1327 68.343 24.0816 68.2265 24.0816H68.1162V24.5382H68.1161ZM68.2789 23.193C67.8694 23.193 67.5348 23.5453 67.5348 23.9898C67.5348 24.43 67.8694 24.7772 68.2867 24.7772C68.6988 24.7793 69.0355 24.43 69.0355 23.9898C69.0355 23.5453 68.6987 23.193 68.2867 23.193H68.2789ZM68.2915 22.9978C68.8316 22.9978 69.2658 23.4371 69.2658 23.9807C69.2658 24.5382 68.8316 24.9741 68.2867 24.9741C67.7448 24.9741 67.2998 24.5382 67.2998 23.9807C67.2998 23.4371 67.7448 22.9978 68.2867 22.9978H68.2915Z" fill="#333333"/>
</svg>
