<svg width="78" height="27" viewBox="0 0 78 27" fill="none" xmlns="http://www.w3.org/2000/svg">
<path d="M71.0554 0.317566H69.3306C73.3551 2.70676 75.8338 5.51757 75.8338 8.5328C75.8338 17.5146 56.7713 24.1328 33.5183 24.1328C20.0902 24.1456 8.13151 21.8075 0.414551 18.179V20.0699C8.39981 23.7495 20.2691 26.0748 33.531 26.0748C58.6367 26.0748 77.0731 18.409 77.0731 8.9672C77.0731 5.81143 74.8755 2.86007 71.0554 0.317566Z" fill="#333333"/>
<path d="M10.4696 15.1382L7.28823 10.2449H6.43221L9.26858 5.27483H7.17325L4.29855 10.2449L7.416 15.1382H10.4696ZM28.4077 6.85911H29.0976C30.3241 6.85911 30.8735 7.33184 30.8735 8.39228C30.8735 8.97999 30.6946 9.45272 30.3752 9.74658C30.1325 9.96377 29.8003 10.0404 28.957 10.0404C28.957 10.0404 28.6121 10.0404 28.4077 10.0404V6.85911V6.85911ZM28.4077 11.6503H29.5703C29.6725 11.663 30.4519 11.6886 31.244 11.4203C32.0489 11.152 33.3266 10.1043 33.3266 8.44338C33.3266 7.60014 33.1094 6.91021 32.7005 6.38638C32.0617 5.59424 30.9885 5.22372 29.3403 5.22372H25.9929V15.1382H28.4204V11.6503H28.4077ZM17.1389 8.57115L18.1993 11.1903H16.0018L17.1389 8.57115ZM15.4013 12.6213H18.7998L19.8091 15.1382H22.6327L18.3015 5.27483H16.7683L12.3605 15.1382H14.3153L15.4013 12.6213ZM3.17423 5.27483H0.41452V15.1382H3.17423V5.27483ZM42.5639 13.4773H39.1143V5.27483H36.6868V15.1382H42.5639V13.4773ZM49.6165 8.57115L50.6769 11.1903H48.4794L49.6165 8.57115ZM47.8789 12.6213H51.2774L52.2868 15.1382H55.0976L50.7792 5.27483H49.246L44.8381 15.1382H46.7929L47.8789 12.6213ZM60.5531 15.1382V8.80112C61.3453 9.97655 64.7949 15.1382 64.7949 15.1382H67.0052V5.27483H64.5394V11.5864C63.76 10.3982 60.387 5.28761 60.387 5.28761H58.0873V15.151H60.5531V15.1382Z" fill="#333333"/>
</svg>
