<svg width="55" height="55" viewBox="0 0 55 55" fill="none" xmlns="http://www.w3.org/2000/svg">
<path fill-rule="evenodd" clip-rule="evenodd" d="M27.3115 54.5716C42.3543 54.5716 54.5495 42.3765 54.5495 27.3336C54.5495 12.2907 42.3543 0.0952759 27.3115 0.0952759C12.2686 0.0952759 0.0731201 12.2907 0.0731201 27.3336C0.0731201 42.3765 12.2686 54.5716 27.3115 54.5716V54.5716Z" fill="#333333"/>
<path fill-rule="evenodd" clip-rule="evenodd" d="M27.3114 53.7226C41.886 53.7226 53.7006 41.9074 53.7006 27.3335C53.7006 12.7596 41.886 0.944382 27.3114 0.944382C12.7376 0.944382 0.922302 12.7593 0.922302 27.3335C0.921978 41.9074 12.7376 53.7226 27.3114 53.7226V53.7226Z" fill="white"/>
<path fill-rule="evenodd" clip-rule="evenodd" d="M25.111 27.9516C25.0996 27.6421 24.9651 27.1073 24.7732 26.5527C22.8609 26.951 22.3984 27.3909 22.3186 28.2936C20.8309 27.2846 21.4487 26.0231 21.7453 25.4682C18.5471 24.6018 19.9017 27.3643 16.1567 27.8421C16.1302 27.2311 16.2096 26.0892 15.5723 26.0892C15.1205 26.0892 14.9879 26.6729 14.5896 26.859C14.2178 27.0181 13.1816 27.2573 13.6331 27.7354C13.2613 27.7886 12.2786 28.1069 12.5444 28.6913C12.6241 28.8514 12.8098 29.568 12.8098 29.8338C12.8098 29.9926 13.0225 30.1521 13.3145 30.0724C12.9962 30.4707 12.8098 31.7189 13.7663 31.8252C14.1115 31.8518 14.9082 31.9049 15.1208 32.0378C15.3069 32.091 15.8644 32.1967 15.785 31.7455C15.9179 31.6398 16.4225 32.3033 16.6351 32.0113C16.7943 31.6923 17.2989 31.1345 18.2289 30.8953C18.574 30.7896 18.6807 30.1521 18.5475 29.8863C19.0784 30.3116 20.5658 32.0647 22.5309 30.1521C21.5219 30.3116 21.2033 29.6208 20.8847 29.1431C21.5754 29.0368 22.5309 30.7365 23.9124 29.9401C23.1688 29.8338 23.0094 28.5587 23.5406 27.9211C23.8592 27.5497 24.2841 27.9211 24.4436 28.1338C24.921 28.7182 25.1071 28.5062 25.111 27.9516V27.9516Z" fill="#333333"/>
<path fill-rule="evenodd" clip-rule="evenodd" d="M17.1129 22.5566C17.4847 21.6536 20.0874 22.0254 21.7871 19.6884C19.8751 19.4758 19.6093 17.4043 16.4222 16.5545C16.5285 16.289 16.475 14.4827 16.475 14.4827C16.6348 14.4827 17.4312 14.1641 17.6438 13.9511C18.3345 13.473 17.179 12.982 16.98 12.6764C16.5814 12.1714 16.3159 12.8887 16.2631 13.1548C16.2096 12.8358 16.2096 11.9325 15.6787 11.9325C14.7491 12.1986 14.4036 11.5079 14.1384 11.8268C14.1384 11.8268 13.8198 12.4109 13.979 12.8358C13.7135 12.8358 12.3321 12.9421 12.4919 13.473C12.5979 13.7917 12.5447 14.9073 12.5447 14.9073C12.4919 15.0664 12.8637 15.4917 13.4477 15.5448C13.0228 15.8635 12.3859 16.3415 12.5979 16.5542C12.9165 16.7133 13.2883 17.2449 13.3411 17.4568C13.3411 17.4568 13.7132 17.8286 13.9255 17.6163C14.0318 17.404 14.6162 17.1914 15.0411 17.6163C14.2973 17.8289 12.969 18.2007 13.2351 19.635C13.7663 18.5725 15.3597 19.7944 16.475 19.6884C15.6783 19.8476 15.7315 20.5386 14.4567 20.2725C14.7753 20.8569 14.988 21.4413 16.9003 21.4944C16.8468 21.6536 17.0066 22.3975 17.1129 22.5566ZM29.6484 29.462C29.8876 28.8776 31.9331 29.0371 31.9597 25.2922C33.2082 26.2746 36.1295 32.1714 39.4758 32.1714C40.0602 32.1714 41.1755 31.9056 41.1755 30.6837C41.1755 28.0281 34.695 30.3654 35.8634 25.4248C36.7661 28.6122 38.2007 26.6464 38.8382 27.1779C36.1295 23.1938 35.5983 24.3095 36.0764 18.5193C36.1827 17.5632 35.0142 15.81 34.1641 15.5445C34.5355 15.3322 35.7049 14.9604 36.5013 15.916C36.1299 14.588 34.9079 10.4982 40.1668 10.4448C39.6887 10.5511 37.989 11.3481 37.989 12.9415C37.989 13.7382 39.0505 14.5352 39.0505 15.5973C39.0505 16.2203 38.6733 16.9797 38.3206 17.9067C39.0505 17.7755 40.1665 16.2881 39.9539 15.7037C42.1323 18.6781 37.5635 19.3688 37.8027 21.7016C38.0127 22.953 38.6204 24.0482 39.3734 25.0371C39.5824 24.256 39.4758 22.6619 38.998 22.1839C39.9539 22.9274 41.4461 23.6175 40.9389 26.8315C41.6827 27.6126 42.4114 28.3351 42.9449 29.0365C43.141 28.5584 43.0347 26.7524 42.7164 26.2211C43.8845 27.6557 44.4161 29.674 43.6722 31.3206C43.3533 32.0644 41.9194 33.8173 39.6353 33.8173C39.1565 33.8173 37.6698 33.4458 36.8728 33.4458C37.1385 33.6047 37.2448 34.5605 37.1385 35.1455C37.3512 34.8266 38.0944 34.0827 38.7851 34.0827C39.0502 34.0827 39.8472 34.7734 39.8472 35.5173C40.326 35.3578 41.6001 34.5077 41.6001 33.6581C41.919 34.2957 42.025 35.9422 41.335 36.5798C41.5476 36.5798 42.5569 36.0485 42.6626 35.7828C42.7689 36.4203 42.5569 37.43 41.6536 38.0137C41.8662 38.0137 42.7164 38.0675 43.0881 37.7486C42.9293 38.12 42.3974 39.9264 41.1758 40.2453C40.6977 40.4579 41.6539 43.1138 39.6887 43.0071C40.0602 43.4859 40.1137 44.4417 39.5293 44.6005C39.1572 44.6537 38.414 44.8132 38.3073 44.9726C38.0947 45.1853 37.511 45.1315 37.511 44.76C37.2983 44.8929 36.7405 46.168 36.2618 45.5304C36.1295 45.2647 35.7711 44.7733 35.2794 44.5746C34.9611 44.362 34.8544 43.4859 35.6508 43.3254C36.0761 43.2198 35.7046 42.3164 35.3857 41.9978C35.1205 41.6264 35.5451 40.7227 36.2884 41.0951C36.6073 41.3071 36.9266 41.5194 37.1917 41.5194C37.6166 41.5194 38.307 40.4579 38.307 39.2891C38.307 38.8104 37.9356 38.4921 37.5106 38.4921C36.8199 38.4921 35.8634 40.7231 34.1637 39.8735C34.27 40.6167 34.2169 42.6889 32.0923 43.8035C32.5703 43.1135 31.8796 42.4228 32.5703 41.5732C31.8796 41.8922 30.658 43.5915 30.7112 44.07C29.3829 42.6885 31.667 39.5543 31.3487 38.7579C30.9235 38.226 30.6049 37.2702 30.6049 36.8456C30.6049 36.208 31.7733 33.4462 31.7733 31.9584C31.7737 31.1617 31.0298 30.0471 29.6484 29.462V29.462Z" fill="#333333"/>
<path fill-rule="evenodd" clip-rule="evenodd" d="M18.8123 42.5828C18.8791 42.8486 19.6625 42.5828 19.8748 42.4765C19.609 42.6892 19.7153 43.4862 20.0339 43.5387C20.3529 43.5918 20.8306 43.8038 20.9369 43.9639C21.0432 44.1227 22.1586 44.3889 22.212 43.432C22.5303 43.6447 23.0087 44.0702 23.3273 43.8035C23.3273 43.8035 24.1244 43.3792 24.6024 43.4858C24.8679 43.5915 25.6118 43.0606 24.5493 42.3699C24.5493 42.3699 24.8147 41.6798 25.0808 41.5197C25.3991 44.0702 27.046 43.432 27.7899 43.1138C27.1523 43.1138 26.8337 42.3699 26.8337 42.1579C28.6394 42.9543 29.4364 42.3167 29.8613 41.8928C29.3301 42.0516 28.5337 41.1483 28.5337 40.6708C29.6484 40.8297 30.1271 40.0326 29.9677 39.1831C29.3301 39.9801 28.6932 38.9705 28.6394 38.4924C30.2334 37.8549 30.2866 36.7927 30.1803 35.9425C29.755 36.8459 28.5337 36.5801 28.5337 35.8894C28.5337 34.4555 30.2866 34.2428 30.9102 34.353C31.1348 33.5667 31.3222 32.7664 31.3222 32.1717C31.3222 31.667 31.024 31.0334 30.4535 30.4898C30.2331 30.7374 29.2241 31.4281 28.5866 31.4281C28.0022 31.4281 27.0988 30.9501 25.9304 30.9501C25.1334 30.9501 23.0619 31.7464 23.3805 34.0305C22.212 33.7654 19.8748 34.5618 20.8838 36.5804C21.7865 34.19 23.0087 37.2711 24.0177 36.1023C24.336 36.9525 25.1859 40.1393 22.5835 40.1393C21.3615 40.1393 21.8928 38.7585 21.1492 38.7585C20.8838 38.7047 20.1931 39.0236 20.2462 39.5549C19.8745 39.5549 18.812 39.9801 19.0246 40.6708C18.7585 40.8297 17.8292 41.5735 18.2143 41.7722C18.3345 41.8523 18.7591 42.3569 18.8123 42.5828V42.5828ZM18.0156 31.3747C17.883 31.4278 17.192 31.6132 17.1658 32.0654C17.405 32.3039 17.7236 32.5169 18.9984 32.3039C18.7857 32.1976 18.0953 31.8524 18.0156 31.3747ZM14.9614 32.3305C14.8282 32.2786 14.377 32.1451 13.8688 32.2547C13.8801 32.5927 13.968 32.9655 15.044 33.6808C14.9614 33.4578 14.6927 32.7344 14.9614 32.3305V32.3305ZM12.4916 29.861C12.4961 29.7181 12.4734 29.2474 12.2012 28.805C11.8861 28.9272 11.5633 29.1337 11.2447 30.3864C11.4272 30.2344 12.0216 29.7408 12.4916 29.861V29.861ZM13.8458 26.8593C13.9832 26.8201 14.6425 26.6204 14.7621 26.2597C14.5491 25.9978 14.2535 25.7534 12.9638 25.8338C13.1645 25.9615 13.8156 26.3757 13.8458 26.8593ZM13.1366 17.7722C13.0867 17.638 12.8867 17.2124 12.4666 16.9058C12.2222 17.1395 12.0022 17.4526 12.1833 18.7322C12.2945 18.5222 12.6569 17.8403 13.1366 17.7722ZM12.2602 14.7442C12.2929 14.6052 12.2524 14.0574 12.1827 13.6523C11.8495 13.7109 11.4923 13.8496 10.9348 15.0155C11.1435 14.9027 11.8229 14.5352 12.2602 14.7442ZM14.5695 11.5387C14.8408 11.7471 15.293 11.7733 15.6829 11.7023C15.7153 11.3656 15.6764 10.9847 14.7015 10.1362C14.7543 10.3679 14.8875 11.1737 14.5695 11.5387V11.5387ZM17.1058 12.4287C17.2854 12.7162 17.6036 12.9421 17.839 13.0718C18.0483 12.8063 18.3345 11.9328 17.4351 11.4096C17.5372 11.9062 17.4312 12.2381 17.1058 12.4287Z" fill="#333333"/>
<path fill-rule="evenodd" clip-rule="evenodd" d="M19.928 39.3961C19.8752 38.9708 20.1938 38.5725 20.6683 38.4496C20.3474 38.344 19.0519 38.2266 18.4464 39.3005C18.6837 39.2992 19.6359 38.8908 19.928 39.3961ZM18.6176 42.8042C18.5696 42.6694 18.2811 42.144 17.9725 42.0085C17.7246 42.2383 17.2186 42.7955 17.7311 43.8842C17.8452 43.6755 18.1366 42.8658 18.6176 42.8042ZM20.7726 44.2229C20.6599 44.1351 20.2764 43.8696 19.8447 43.8411C19.7588 44.1678 19.5296 44.7875 20.6031 45.6092C20.5879 45.3726 20.3996 44.5324 20.7726 44.2229V44.2229ZM24.2962 43.8761C24.1536 43.8887 23.6466 43.9108 23.3507 44.266C23.5105 44.5636 23.9118 45.1593 25.1178 45.006C24.9454 44.8426 24.2346 44.3571 24.2962 43.8761ZM39.2759 44.9655C39.1336 44.9775 38.6263 44.9995 38.3307 45.3548C38.8117 46.4334 39.7679 46.1151 40.2038 45.4306C40.0868 45.4776 38.9981 45.6374 39.2759 44.9655ZM41.1263 42.3884C41.123 42.6892 40.8566 43.034 40.4735 43.2285C41.8397 43.8842 42.2902 42.8467 42.11 42.0555C42.0607 42.1719 41.4815 42.8613 41.1263 42.3884ZM35.9429 45.5758C35.8687 45.453 35.6288 45.006 35.1799 44.8951C34.4182 45.7978 35.1216 46.5203 35.9277 46.6146C35.834 46.5294 35.2169 45.6189 35.9429 45.5758ZM35.4908 43.0266C35.6648 42.8878 35.4211 42.3304 35.014 42.1106C34.1372 42.2513 33.8186 43.2736 34.7012 43.6171C34.602 43.4197 34.7774 42.8872 35.4908 43.0266ZM19.1844 14.3764C19.4499 14.0574 20.2998 12.8889 21.1496 12.8889C22.2121 12.8889 22.2121 15.0667 23.8055 15.0667C24.2038 15.0667 24.3101 14.8411 24.5292 14.6156C24.2835 14.7484 23.4337 15.2265 22.6373 12.8889C22.1058 12.5172 21.7868 11.2424 23.2211 11.2424L24.9743 11.1889C25.1862 10.5517 27.3112 9.2766 28.9584 9.33008C29.0647 8.53306 30.0205 6.7802 32.4641 7.47123C32.4641 7.47123 31.0827 8.32108 31.0827 8.74568C32.0385 8.21444 33.7382 8.85199 34.4296 7.47123C34.6416 8.05497 34.4827 9.17093 32.5704 9.96763C33.8449 9.80848 35.7572 9.91447 36.9791 9.27692C36.9266 10.8175 33.8449 10.9241 33.7923 11.6673C33.7385 12.2517 34.0575 13.2607 34.7482 13.2607C34.9608 13.2607 35.4921 13.2079 35.5984 12.8361C36.1296 13.8451 35.014 15.492 33.3143 14.9611C34.3233 16.1292 33.2605 19.2635 35.6509 18.201C35.2794 19.2103 34.4827 20.4851 32.8355 19.7416C32.8355 21.7602 35.014 21.7067 35.014 24.0443C35.014 24.6287 34.3764 25.9566 33.6857 26.541C33.6857 25.3726 32.0657 24.1772 31.4016 24.8407C31.4016 29.3564 28.3205 28.2404 28.3205 30.0471C27.8956 29.3564 28.6388 28.0809 28.48 27.7092C26.8863 30.3122 24.9739 29.6215 24.9739 30.0996C24.9739 29.1437 25.6112 28.665 25.6112 28.1872C25.6112 27.3909 24.9205 26.1689 25.2394 25.7968C24.6018 26.4347 22.4772 26.1686 22.0523 27.3905C21.8925 27.0185 21.4679 26.2218 22.849 24.7875C21.4679 25.5842 20.1131 23.9111 18.9977 25.7171C18.7851 24.442 19.4493 23.6719 20.4582 22.7689C19.5021 22.9815 18.5991 22.7689 18.4399 23.3533C18.6522 22.1845 19.821 21.9725 20.5117 21.5473C21.2024 21.1755 21.627 20.7237 22.3177 19.9273C22.7427 19.3429 23.9115 18.6256 26.5142 18.5724C26.6208 18.5994 26.859 18.3067 26.859 18.1475C26.8059 18.2538 25.9826 18.9176 25.3982 18.094C25.159 18.2801 24.514 18.8376 23.6191 18.4392C23.4065 17.6957 24.5484 17.8817 24.0969 16.5003C21.2287 16.5003 21.7333 14.4551 21.2287 14.4551C20.83 14.4551 20.2459 15.0658 19.5556 14.9066C19.3698 14.881 18.8924 14.7747 19.1844 14.3764V14.3764ZM29.0647 10.9238C27.5238 10.658 27.6301 11.3487 27.3647 11.6142C29.2242 11.9859 28.8521 10.9238 29.0647 10.9238ZM26.7806 15.8638C26.249 15.173 25.3992 15.7574 25.24 15.8103C26.143 17.1917 26.3553 15.8103 26.7806 15.8638Z" fill="#333333"/>
<path fill-rule="evenodd" clip-rule="evenodd" d="M29.6498 7.14355C29.042 7.60899 28.4275 8.46695 28.2677 8.74569C26.8561 8.87016 25.8582 9.43543 25.2394 9.91092C22.9302 10.182 20.6986 10.9123 18.6759 12.0589C18.1761 10.8943 17.1937 10.754 16.9532 10.658C17.113 10.9238 16.9004 11.8268 16.8469 11.986L16.3688 11.6142C16.4019 11.2868 16.1559 10.8347 15.9377 10.4888C19.1832 8.29289 23.0979 7.01034 27.3115 7.01034C28.1024 7.01034 28.8826 7.05539 29.6498 7.14355ZM35.8953 12.03C36.1303 11.3802 36.7017 10.5796 38.2977 10.2331C38.0063 10.0454 37.7102 9.86528 37.4096 9.69278C36.8874 10.87 35.684 11.2878 34.9579 11.5393C35.2762 11.6936 35.589 11.857 35.8953 12.03V12.03ZM41.5739 41.8124C41.4994 41.1622 41.6144 40.5078 41.8131 40.4582C43.2477 39.7144 43.6191 37.9615 43.6191 37.005C43.4597 37.2177 43.0879 37.3771 42.8753 37.3771C43.3005 36.8358 43.1291 35.8667 42.9463 35.3008C44.1676 32.9104 44.8557 30.2023 44.8557 27.3335C44.8557 22.2668 42.7077 17.7019 39.2727 14.4992C38.3162 13.2286 38.473 12.0566 39.8373 11.3277C44.5844 15.0479 47.6347 20.8345 47.6347 27.3332C47.6347 33.0002 45.3153 38.1262 41.5739 41.8124V41.8124ZM25.4005 44.7746C25.617 45.0242 25.9285 45.2728 26.0371 45.345C23.0623 46.1421 22.5842 44.0168 22.5842 44.0168C22.4779 44.442 21.4689 44.6012 21.2031 44.5487C20.9905 44.6543 20.9373 46.0358 21.2559 46.3547C19.0782 45.5045 19.0782 44.3892 19.2908 43.6985C18.8655 43.4865 18.8124 43.1673 18.8124 43.1673C18.4406 43.3261 17.9094 44.7075 17.9094 44.7075C16.6408 43.6142 17.0663 42.3569 17.3914 41.8056C12.7873 38.6435 9.76772 33.3411 9.76772 27.3338C9.76772 24.3493 10.5132 21.5388 11.8275 19.0778C11.1909 17.7599 11.7679 16.6404 11.9601 16.4482C11.8538 16.2355 12.3319 15.6515 12.3319 15.6515L12.0664 15.2797C11.6988 15.1792 10.9838 15.6015 10.4967 15.915C8.28227 19.1695 6.98837 23.1005 6.98837 27.3335C6.98837 38.5573 16.0878 47.6567 27.3115 47.6567C29.7496 47.6595 32.1682 47.2229 34.4513 46.3677C34.1431 45.7878 34.4439 45.1182 34.7482 44.8135C34.5894 44.654 34.6419 44.1228 34.6419 44.1228C34.4432 44.0829 34.0582 43.8353 33.8368 43.6239C31.7616 44.4543 29.5467 44.8796 27.3115 44.8767C26.6732 44.8769 26.0352 44.8428 25.4005 44.7746V44.7746ZM9.02483 10.2687C8.9169 10.1699 9.06664 9.94722 9.0083 9.89341C8.91009 9.80363 8.84883 9.90962 8.77753 9.98806L8.29296 10.5164C8.22133 10.5951 8.12085 10.6648 8.21874 10.7546C8.2774 10.8084 8.48614 10.6395 8.59407 10.7384L11.1786 13.1074C11.2862 13.2063 11.1362 13.429 11.1945 13.4828C11.2927 13.5725 11.3537 13.4665 11.4253 13.3881L11.9099 12.8598C11.9821 12.781 12.0823 12.711 11.9841 12.6212C11.9254 12.5674 11.7167 12.736 11.6087 12.6378L9.02483 10.2687V10.2687ZM6.95531 12.8617C6.8759 12.7395 6.65517 12.9846 6.58807 12.9411C6.47625 12.8695 6.56344 12.7833 6.62049 12.6938L7.03018 12.0573C7.08787 11.9681 7.13001 11.8531 7.24183 11.925C7.3086 11.9678 7.19354 12.2336 7.32124 12.2919L10.5715 13.719C10.72 13.7829 10.8717 13.5965 10.9388 13.6393C11.0506 13.7116 10.9634 13.7972 10.906 13.8866L10.5109 14.5008C10.4536 14.5903 10.4111 14.7053 10.2996 14.6334C10.2322 14.5903 10.368 14.3307 10.2196 14.2665L7.56271 13.0948L9.51847 15.8605C9.6089 15.9898 9.52722 16.056 9.40697 16.0336L6.23413 15.4304L8.28713 17.2714C8.40446 17.3709 8.58694 17.1489 8.65403 17.1917C8.76553 17.2637 8.67899 17.3495 8.62098 17.439L8.3808 17.8134C8.32278 17.9022 8.28097 18.0172 8.16882 17.9459C8.10205 17.9022 8.20318 17.6837 8.08941 17.5787L5.44197 15.2129C5.33015 15.117 5.14216 15.3358 5.07507 15.293C4.96357 15.221 5.05011 15.1345 5.10813 15.0457L5.48508 14.459C5.54245 14.3699 5.58491 14.2545 5.69641 14.3268C5.76383 14.3699 5.63612 14.6665 5.77615 14.694L8.63848 15.2402L6.95531 12.8617V12.8617ZM10.4082 9.09477L12.6096 11.3999C12.701 11.4956 12.9114 11.5341 13.0359 11.4145L13.4588 11.011C13.6219 10.8554 14.3547 10.0266 13.3827 9.00856C12.0619 7.6252 10.9378 8.31331 10.7842 8.46014L10.4866 8.74472C10.3521 8.87307 10.3349 9.01828 10.4082 9.09477L9.88311 9.46752C9.78198 9.36218 9.56255 9.51646 9.50713 9.45941C9.41605 9.36282 9.52042 9.29962 9.59723 9.22637L10.5385 8.32758C10.9462 7.9383 12.3879 6.92898 13.9285 8.54247C14.4698 9.10904 14.8801 10.0571 13.5405 11.3374L12.5318 12.3C12.455 12.3736 12.387 12.4754 12.2949 12.3794C12.2405 12.3217 12.4045 12.1098 12.3037 12.0038L9.88279 9.46816L10.4082 9.09477V9.09477ZM13.829 6.39839L15.5977 9.0494C15.6716 9.15992 15.8719 9.23382 16.0155 9.13788L16.5017 8.81344C16.6894 8.68832 17.5548 7.99891 16.7733 6.82818C15.7121 5.23771 14.4857 5.72065 14.309 5.83863L13.9661 6.06714C13.8121 6.16989 13.77 6.30958 13.829 6.39839L13.2472 6.67455C13.1662 6.55332 12.9231 6.66774 12.879 6.60162C12.8051 6.49077 12.9192 6.44636 13.0077 6.3877L14.0902 5.66523C14.5596 5.35245 16.1539 4.60794 17.3921 6.46354C17.8267 7.11568 18.0675 8.12046 16.526 9.14923L15.366 9.92291C15.2775 9.9819 15.1929 10.0704 15.119 9.95954C15.0746 9.89341 15.2739 9.7132 15.1929 9.59133L13.2472 6.67487L13.829 6.39839V6.39839ZM18.5463 8.12176C18.45 8.16649 18.3525 8.24103 18.2967 8.12046C18.263 8.04786 18.4873 7.90006 18.4257 7.76781L16.9496 4.58784C16.8881 4.4556 16.6304 4.53112 16.597 4.45852C16.5412 4.33827 16.6602 4.31169 16.7568 4.26728L17.4073 3.9652C17.5036 3.92047 17.6008 3.84657 17.6569 3.9665C17.6903 4.03878 17.4666 4.1869 17.5276 4.31914L18.8979 7.27061C18.9871 7.46314 19.0376 7.57172 19.2302 7.48226L20.1461 7.05701C20.2541 7.00677 20.6923 6.65737 20.8488 6.17475C20.9007 6.03311 21.0164 5.93555 21.0352 6.10247L21.0041 6.98117L18.5463 8.12176ZM22.9119 3.86537L23.3721 4.32303C23.5251 4.48963 23.332 4.53922 23.1961 4.43712C22.9051 4.26501 22.4409 4.21931 22.2737 4.26242L21.7207 4.40439L22.1833 6.20554C22.2361 6.41103 22.2656 6.52707 22.4714 6.47391L23.8091 6.13034C23.9251 6.10085 24.4194 5.83669 24.6612 5.39069C24.7374 5.26137 24.8689 5.1865 24.8573 5.35374L24.6664 6.21202L21.6822 6.97825C21.5791 7.00483 21.4702 7.06025 21.4371 6.9319C21.417 6.85476 21.6647 6.74974 21.628 6.6081L20.7558 3.21226C20.7195 3.07062 20.4524 3.0985 20.4327 3.02168C20.3996 2.89268 20.5218 2.88879 20.6249 2.86221L23.236 2.1916L23.6963 2.64926C23.8486 2.81586 23.6558 2.86545 23.5199 2.76368C23.2289 2.59157 22.7644 2.54651 22.5975 2.5893L21.6066 2.84373C21.4012 2.89657 21.3665 3.02881 21.3895 3.11891L21.6637 4.18625L22.59 3.94867C22.6678 3.92825 22.6951 3.66052 22.9119 3.86537V3.86537ZM26.402 6.18771C25.924 5.94883 26.0371 6.47067 25.877 6.2843L25.1334 5.27531C24.8946 4.95637 25.3461 4.90354 25.5094 5.11584C25.877 5.54076 26.6419 6.0169 27.285 6.0169C27.9283 6.0169 28.4492 5.61337 28.4492 5.11584C28.4492 3.73475 25.3266 4.77065 25.3266 2.77859C25.3266 2.23924 25.9658 1.802 26.7537 1.802C27.0179 1.802 27.2658 1.85127 27.4778 1.93684C27.6564 2.0613 27.7361 1.68953 28.0022 2.11446L28.2674 2.53938C28.3737 2.72543 28.3578 2.96463 28.1533 2.75201C27.7893 2.35366 27.189 2.10895 26.7534 2.10895C26.3175 2.10895 25.9648 2.36111 25.9648 2.67227C25.9648 3.73475 29.1629 2.85832 29.1629 4.95637C29.1629 5.72389 28.3215 6.34653 27.2846 6.34653C26.9527 6.34653 26.6733 6.29954 26.402 6.18771V6.18771ZM30.3612 5.93652L30.5803 4.1305L31.4768 4.23941C31.5951 4.25335 32.634 4.55478 32.5157 5.53039C32.4865 5.76765 32.1536 6.38121 31.1381 6.25805L30.6633 6.20035C30.5709 6.18966 30.3424 6.09469 30.3612 5.93652L29.7156 5.96504C29.6977 6.10992 29.4294 6.11705 29.42 6.19679C29.4034 6.32838 29.5256 6.31639 29.6306 6.32936L31.3709 6.54003C33.1377 6.75493 33.172 5.80914 33.1999 5.58517C33.2987 4.76773 32.6447 4.31363 32.2376 4.14412C32.7591 4.03327 32.8498 3.61612 32.8706 3.44466C32.9856 2.49595 31.659 2.29467 31.3822 2.26064L30.1428 2.11057C30.0377 2.0976 29.9217 2.05676 29.9061 2.18868C29.8967 2.26777 30.1557 2.3394 30.1379 2.48461L30.7609 2.64018C30.7774 2.50827 30.9288 2.47326 31.2451 2.51183C31.4558 2.53744 32.3144 2.62787 32.2201 3.40576C32.1993 3.57722 31.999 4.01447 31.6434 3.97136L30.6147 3.84625L30.7609 2.64018L30.1379 2.48461L29.7156 5.96472L30.3612 5.93652V5.93652Z" fill="#333333"/>
<path fill-rule="evenodd" clip-rule="evenodd" d="M34.1748 3.29071L33.193 6.6564C33.1519 6.79643 32.8861 6.76045 32.8631 6.83694C32.8265 6.96432 32.9487 6.9721 33.0504 7.00224L33.7385 7.2032C33.841 7.2327 33.9479 7.29169 33.9855 7.16431C34.0076 7.08781 33.7638 6.97502 33.805 6.83467L34.1285 5.72585C34.2076 5.83216 34.5809 6.02404 34.7975 6.08692C34.9556 6.13359 35.1063 6.16925 35.2496 6.19615L35.7293 7.3967C35.7792 7.53543 35.4224 7.50042 35.4 7.57724C35.3627 7.70494 35.4856 7.71272 35.5873 7.74189L36.5497 8.02323C36.6514 8.05273 36.759 8.11172 36.7966 7.98401C36.818 7.90784 36.5335 7.74838 36.4686 7.61257L35.9325 6.25806C36.6809 6.23991 37.1068 5.89893 37.2323 5.46914C37.7794 3.59538 35.2058 3.12152 34.2886 2.92315C34.181 2.91278 34.0309 2.83434 33.9943 2.96172C33.9716 3.03757 34.2153 3.15036 34.1748 3.29071L34.7871 3.46898C34.8085 3.39281 34.9423 3.36234 35.0694 3.39961C35.0694 3.39961 36.947 3.69813 36.5198 5.16447C36.3597 5.71223 35.9546 6.10572 34.8581 5.78581C34.6921 5.73784 34.1845 5.53429 34.2403 5.34273L34.7874 3.46865L34.1748 3.29071V3.29071ZM37.4008 6.31932C38.0312 5.27143 39.378 4.92397 40.409 5.54401C41.4397 6.16406 41.7651 7.5163 41.1344 8.56419C40.504 9.61241 39.1572 9.95954 38.1262 9.33982C37.0948 8.7201 36.7704 7.36785 37.4008 6.31932L38.0763 6.72609C37.5123 7.6641 37.5882 8.74538 38.2458 9.14113C38.9034 9.53656 39.8943 9.0964 40.4583 8.15807C41.0222 7.21941 40.9464 6.13846 40.2887 5.7427C39.6318 5.34759 38.6409 5.78743 38.0763 6.72577L37.4008 6.31932ZM41.4157 11.3455C40.5536 10.5559 41.1827 9.88921 41.2809 9.7816C41.407 9.6445 43.0039 8.13603 43.1939 7.96813C43.3028 7.87867 43.5147 8.01027 43.5692 7.9516C43.6583 7.85372 43.5527 7.79246 43.4742 7.72115L42.9456 7.23691C42.8671 7.16495 42.7968 7.0648 42.707 7.16268C42.6532 7.22135 42.8325 7.43916 42.7236 7.53802C42.5793 7.6761 41.0005 9.16479 40.8391 9.34079C40.6232 9.57611 39.8959 10.3504 41.2183 11.5614C42.2173 12.4764 42.9226 11.8437 43.1916 11.55C43.434 11.2855 44.7357 9.68663 44.8787 9.51161C44.9775 9.404 45.1995 9.55374 45.2533 9.49508C45.3431 9.39687 45.2368 9.33593 45.159 9.2643L44.8362 8.96837C44.7578 8.8961 44.6874 8.79594 44.5976 8.89415C44.5438 8.95314 44.7127 9.16155 44.6142 9.26949C44.5263 9.40465 43.0726 11.1889 42.9378 11.3354C42.7268 11.5653 42.1304 12.0002 41.4157 11.3455V11.3455ZM47.4924 11.8171C47.4091 11.6003 47.2908 11.3986 47.1423 11.2201C46.3751 10.294 45.0508 10.1242 44.1089 10.9044C43.1174 11.7257 43.0642 13.1155 43.9368 14.1689C44.0298 14.2811 44.6501 14.9919 44.8877 15.2781C44.9555 15.3598 45.0119 15.469 45.113 15.3837C45.1749 15.3332 45.0359 15.1031 45.1483 15.01L46.1713 14.1631C46.2834 14.0697 46.4834 14.249 46.5453 14.1981C46.6471 14.1132 46.5511 14.038 46.4827 13.9563L46.0257 13.404C45.9573 13.3223 45.9016 13.2131 45.7998 13.2977C45.7386 13.3486 45.877 13.5784 45.7645 13.6717L44.9879 14.3154C44.8339 14.4425 44.3296 14.2782 44.1163 14.0198C43.6262 13.429 43.7695 12.2096 44.6119 11.5114C45.4553 10.813 46.4743 10.7763 46.9644 11.3682C47.2441 11.7059 47.3631 12.3046 47.177 12.7898C47.1277 12.9224 47.1961 13.2967 47.3981 12.957L47.7854 12.2391C47.8842 11.985 47.5345 12.0488 47.4924 11.8171V11.8171ZM48.6748 17.7314L47.2227 18.6392C47.0986 18.717 46.9239 18.5128 46.8568 18.555C46.7433 18.6253 46.8296 18.7125 46.886 18.8026L47.2665 19.4103C47.3229 19.5008 47.364 19.6161 47.4759 19.5458C47.5436 19.5034 47.4366 19.2573 47.5608 19.1796L50.533 17.321C50.6571 17.2436 50.8318 17.4478 50.8996 17.4053C51.0117 17.335 50.9255 17.2481 50.8698 17.1577L50.4892 16.5496C50.4328 16.4595 50.3917 16.3441 50.2798 16.4145C50.2121 16.4569 50.3191 16.7029 50.1949 16.7807L48.9788 17.5411L47.7679 15.6045L48.984 14.8438C49.1081 14.766 49.2828 14.9705 49.3499 14.9284C49.4627 14.8577 49.3772 14.7705 49.3208 14.6804L48.9402 14.0727C48.8838 13.9826 48.8433 13.8668 48.7302 13.9375C48.6631 13.9796 48.7701 14.226 48.6466 14.3031L45.6737 16.1623C45.5502 16.2394 45.3749 16.0356 45.3078 16.0777C45.195 16.1484 45.2812 16.2359 45.3376 16.3256L45.7175 16.9337C45.7739 17.0235 45.815 17.1392 45.9275 17.0689C45.9946 17.0267 45.8877 16.7801 46.0118 16.7033L47.4639 15.7947L48.6748 17.7314V17.7314ZM27.8165 52.6913C27.7102 52.6939 27.5919 52.7237 27.5886 52.5905C27.5867 52.5108 27.8508 52.4644 27.8476 52.3182L27.7633 48.8138C27.7601 48.6676 27.4933 48.6339 27.4914 48.5548C27.4885 48.4219 27.6084 48.4453 27.7147 48.4427L28.4313 48.4255C28.5377 48.4229 28.6566 48.3937 28.6599 48.5263C28.6612 48.606 28.397 48.6524 28.4009 48.7986L28.4787 52.0512C28.4839 52.2638 28.4868 52.3827 28.6991 52.3779L29.7081 52.3532C29.8277 52.3506 30.369 52.2045 30.7051 51.8246C30.8081 51.7163 30.954 51.6726 30.9044 51.8333L30.5252 52.6265L27.8165 52.6913V52.6913ZM8.63974 38.0306C8.76712 37.9576 8.66891 37.7084 8.73827 37.6685C8.85334 37.6021 8.88964 37.7191 8.94247 37.8115L10.2843 40.1494L9.96605 40.7146C9.8458 40.9059 9.74695 40.7331 9.8095 40.5752C9.89766 40.2485 9.81793 39.7896 9.73204 39.6395L9.22284 38.7527C9.11717 38.5686 8.98039 38.5705 8.89969 38.6166L7.94385 39.1653L8.41934 39.9941C8.45953 40.0638 8.72434 40.0187 8.58464 40.2822L8.26603 40.8482C8.14643 41.0387 8.04724 40.8666 8.10947 40.7081C8.19796 40.3814 8.11758 39.9218 8.03169 39.7724L7.74743 39.2775L5.91646 40.3283C5.78973 40.4012 5.88729 40.6511 5.81825 40.691C5.70318 40.7568 5.66623 40.6404 5.6134 40.548L5.25654 39.9264C5.20339 39.834 5.12138 39.7436 5.23645 39.6768C5.30549 39.6376 5.47273 39.8476 5.59914 39.7756L8.63974 38.0306V38.0306ZM8.82093 41.6144C9.71129 40.7756 11.1018 40.8047 11.927 41.6802C12.7525 42.5556 12.7 43.9452 11.8103 44.7846C10.9203 45.6235 9.52946 45.5943 8.70424 44.7188C7.87838 43.8431 7.93088 42.4535 8.82093 41.6144L9.36221 42.1884C8.56519 42.9391 8.34673 44.0009 8.87279 44.559C9.39949 45.1175 10.4723 44.961 11.269 44.2103C12.0657 43.4596 12.2845 42.3978 11.7578 41.8397C11.2311 41.2805 10.1586 41.4371 9.36221 42.1884L8.82093 41.6144V41.6144ZM11.9328 44.9156C12.6469 43.9225 14.0179 43.6868 14.9945 44.3889C15.9717 45.0916 16.1844 46.4659 15.4703 47.4593C14.7563 48.4518 13.3859 48.688 12.4086 47.9854C11.4314 47.2833 11.2188 45.9084 11.9328 44.9156L12.5733 45.3758C11.9341 46.2646 11.9212 47.3491 12.5441 47.7974C13.1677 48.2456 14.1913 47.8878 14.8302 46.9984C15.469 46.1096 15.4823 45.0258 14.859 44.5782C14.2357 44.1299 13.2125 44.4871 12.573 45.3758L11.9328 44.9156V44.9156ZM19.6447 47.0742C19.7656 47.1287 20.1024 46.8039 20.0852 47.2921L20.0547 48.0657C20.067 48.2317 19.868 48.1562 19.8077 47.9682C19.7461 47.7504 19.5782 47.4454 19.2758 47.3079L18.5385 46.9738L17.0861 50.1751C17.0255 50.308 17.2514 50.4536 17.2183 50.5265C17.1632 50.6474 17.0653 50.5738 16.9687 50.5304L16.3153 50.2341C16.219 50.1904 16.0988 50.1644 16.1539 50.0442C16.1863 49.9713 16.445 50.0448 16.5052 49.9119L17.9576 46.7106L17.2196 46.3758C16.9172 46.2383 16.5772 46.3138 16.373 46.4104C16.1915 46.4882 16.0038 46.389 16.1367 46.2882L16.6987 45.7557C17.0549 45.4215 17.0323 45.8892 17.1532 45.9443L19.6447 47.0742ZM24.8268 51.0798L26.0529 51.1841L25.4365 49.1337L24.4294 51.0454L24.8268 51.0798L24.7973 51.4253L24.2576 51.3789L23.8567 52.1435C23.7906 52.291 24.1053 52.3513 24.0988 52.4304C24.0875 52.5633 23.9708 52.526 23.8651 52.5172L23.4217 52.48C23.3157 52.4712 23.1945 52.4868 23.2055 52.3545C23.2123 52.2748 23.4139 52.2589 23.4927 52.1121L25.2634 48.6987C25.3891 48.4621 25.7632 48.1474 25.9512 48.7564L27.0587 52.4161C27.1109 52.5869 27.3073 52.6239 27.3008 52.7036C27.2895 52.8359 27.1725 52.7992 27.0665 52.7905L26.3388 52.7286C26.2328 52.7192 26.1116 52.736 26.1226 52.6038C26.1294 52.5241 26.4487 52.5315 26.4098 52.3613L26.1631 51.5416L24.797 51.4259L24.8268 51.0798V51.0798ZM31.4078 52.4077C31.3034 52.4249 31.1893 52.4702 31.1679 52.3393C31.1553 52.2609 31.4104 52.1785 31.387 52.0343L30.8179 48.5746C30.7945 48.431 30.5255 48.4346 30.5129 48.3555C30.4915 48.2246 30.6137 48.2314 30.718 48.2142L31.4259 48.0978C31.5309 48.0806 31.6444 48.0353 31.6658 48.1662C31.6791 48.2446 31.4233 48.327 31.4467 48.4712L31.9753 51.682C32.0093 51.8914 32.0291 52.0093 32.2385 51.9743L33.2349 51.8103C33.3519 51.7912 33.8679 51.5718 34.1482 51.1488C34.2357 51.0266 34.3735 50.9634 34.3469 51.1297L34.0805 51.9672L31.4078 52.4077V52.4077ZM20.2725 51.2353L20.8323 49.5045L21.6915 49.7823C21.8053 49.8183 22.7038 50.2766 22.4017 51.2117C22.3278 51.4389 21.9473 52.0139 20.9742 51.6992L20.5195 51.5523C20.4307 51.5235 20.2233 51.3874 20.2725 51.2353L19.6334 51.1404C19.5883 51.2797 19.3235 51.236 19.2989 51.3112C19.2583 51.4386 19.3802 51.4493 19.481 51.482L21.1489 52.0207C22.8422 52.5681 23.0561 51.6466 23.1258 51.4321C23.3792 50.6483 22.8237 50.0779 22.4558 49.8335C22.989 49.8248 23.1579 49.4322 23.2113 49.2682C23.505 48.3578 22.2412 47.9079 21.9758 47.8223L20.7879 47.4386C20.6868 47.4055 20.5811 47.3436 20.5402 47.4703C20.5156 47.5462 20.7564 47.6654 20.7111 47.8045L21.2932 48.0761C21.334 47.9494 21.4893 47.9445 21.7927 48.0424C21.9949 48.1075 22.8201 48.36 22.5793 49.1058C22.5265 49.2699 22.2468 49.6611 21.9051 49.5509L20.9195 49.2319L21.2935 48.0761L20.7114 47.8045L19.6334 51.14L20.2725 51.2353V51.2353ZM41.5074 43.785C41.9333 44.3211 42.8629 45.4728 42.966 45.583C43.0655 45.6899 43.6807 46.3693 44.5354 45.5723C45.2449 44.9114 44.8582 44.2826 44.6456 44.0541C44.5095 43.9085 42.8464 42.3184 42.7187 42.2202C42.6185 42.1132 42.3972 42.2646 42.3427 42.2069C42.2523 42.1093 42.3579 42.0474 42.4357 41.9751L42.756 41.6756C42.8338 41.604 42.9028 41.5029 42.9939 41.6005C43.0477 41.6581 42.8804 41.8688 42.9799 41.9751C43.1439 42.1314 44.6346 43.5559 44.879 43.8188C45.1512 44.1092 45.7253 44.8628 44.7347 45.7862C43.423 47.0084 42.7083 46.2224 42.4912 45.9894C42.3285 45.8147 40.9688 44.1218 40.8427 43.9675C40.7535 43.8518 40.5224 44.0126 40.468 43.9542C40.3769 43.8573 40.4826 43.7954 40.5604 43.7225L40.5957 43.6894C40.8167 43.7844 41.0154 43.8515 41.5074 43.785V43.785ZM38.1482 45.7797C38.0471 45.7632 37.9184 45.7956 37.8899 45.7473C37.8215 45.6338 37.9379 45.5953 38.0293 45.5402C38.0458 45.5791 38.0831 45.6688 38.1482 45.7797ZM38.4344 46.1343C38.6344 46.3064 38.9213 46.4357 39.3238 46.3868L40.4716 48.3043C40.5798 48.4864 40.6411 48.5892 40.8235 48.4803L41.6903 47.9623C41.7927 47.9011 42.1917 47.5079 42.2973 47.0107C42.334 46.8652 42.4387 46.7556 42.4753 46.9203L42.5356 47.797L40.2103 49.1872C40.1192 49.2417 40.0298 49.3259 39.962 49.2118C39.9209 49.1441 40.1286 48.9733 40.0531 48.8478L38.4344 46.1343V46.1343ZM38.0983 50.3878C36.8304 50.9012 35.5212 50.4309 35.0383 49.2374C34.5787 48.1043 35.1407 46.8927 36.2557 46.4406C36.4709 46.3536 36.6988 46.3018 36.9305 46.2873C37.1636 46.3164 37.2089 45.9644 37.4219 46.1353L37.9891 46.7226C38.252 47.0175 37.8744 46.9696 37.7632 46.882C37.3567 46.5579 36.7496 46.4908 36.3432 46.6555C35.6317 46.9443 35.3582 47.926 35.7695 48.9409C36.1805 49.9557 37.2997 50.4604 38.0111 50.1722C38.4276 50.0033 38.9948 49.453 39.1375 48.8978C39.1793 48.7409 39.4136 48.7432 39.3647 48.9723C39.2752 49.289 39.1146 49.5811 38.8951 49.8264C38.6757 50.0717 38.4032 50.2637 38.0983 50.3878V50.3878ZM3.08232 24.5807L2.38514 24.9791C2.29244 25.0251 2.15955 25.0588 2.15955 25.1917C2.15955 25.2714 2.5177 25.3113 2.5177 25.4572V28.2725C2.5177 28.4187 2.25224 28.4586 2.25224 28.5383C2.25224 28.6705 2.37185 28.6446 2.47783 28.6446H3.10177C3.20808 28.6446 3.32801 28.6705 3.32801 28.5383C3.32801 28.4586 3.082 28.4187 3.082 28.2725V24.5807H3.08232V24.5807ZM4.81574 24.4641C5.6792 24.4641 6.09246 25.4063 6.09246 26.5679C6.09246 27.7296 5.51941 28.6709 4.74281 28.6709C4.15161 28.6709 3.73673 28.5182 3.73673 28.069C3.73673 27.8473 3.78664 27.4953 4.20476 27.4953C4.39729 27.4953 4.6164 27.5682 4.6164 27.8074C4.6164 28.219 4.1905 27.8686 4.1905 28.1928C4.1905 28.4644 4.59598 28.4206 4.74281 28.4206C5.20112 28.4206 5.46657 27.7737 5.46431 26.9481C5.28247 27.1034 5.06337 27.2061 4.81574 27.2061C4.09975 27.2061 3.51989 26.5922 3.51989 25.8354C3.51989 25.0779 4.09975 24.4641 4.81574 24.4641V24.7648C4.45239 24.7648 4.15841 25.2442 4.15841 25.8354C4.15841 26.4263 4.45239 26.9057 4.81574 26.9057C5.26724 26.9057 5.47306 26.7381 5.47306 25.8354C5.47306 25.2442 5.17908 24.7648 4.81574 24.7648V24.4641V24.4641ZM51.8324 28.6709C51.0506 28.6709 50.6753 27.7296 50.6753 26.5679C50.6753 25.4063 51.1952 24.4641 51.8988 24.4641C52.4349 24.4641 52.8103 24.6177 52.8103 25.0663C52.8103 25.2883 52.7652 25.6403 52.386 25.6403C52.2113 25.6403 52.0126 25.5671 52.0126 25.3278C52.0126 24.9159 52.3986 25.2669 52.3986 24.9421C52.3986 24.6708 52.0314 24.7143 51.8985 24.7143C51.4833 24.7143 51.2428 25.3609 51.2444 26.1871C51.4091 26.0318 51.6078 25.9291 51.8317 25.9291C52.4806 25.9291 53.0067 26.5433 53.0067 27.3001C53.0073 28.0573 52.4813 28.6709 51.8324 28.6709V28.3707C52.1617 28.3707 52.4288 27.8913 52.4288 27.3001C52.4288 26.7086 52.1617 26.2299 51.8324 26.2299C51.4234 26.2299 51.2367 26.3975 51.2367 27.3001C51.2367 27.8913 51.5037 28.3707 51.8324 28.3707V28.6709V28.6709ZM49.323 28.795C48.6463 28.795 48.0975 28.2903 48.0975 27.668C48.0975 26.987 48.4793 26.706 48.8881 26.4902C48.5892 26.2639 48.3481 25.9774 48.3481 25.4902C48.3481 24.9713 48.7899 24.5509 49.335 24.5509V24.8326C49.0342 24.8326 48.7905 25.1272 48.7905 25.4902C48.7905 25.8134 49.09 25.9939 49.4413 26.1965C49.6932 26.0399 49.8802 25.8419 49.8802 25.4902C49.8802 25.1272 49.6365 24.8326 49.335 24.8326V24.5509C49.8802 24.5509 50.3226 24.9713 50.3226 25.4902C50.3226 25.9832 50.0922 26.2312 49.804 26.4133C50.1959 26.67 50.5485 27.0169 50.5485 27.668C50.5485 28.2903 50.0005 28.795 49.323 28.795V28.5318C49.6997 28.5318 50.0043 28.1451 50.0043 27.6683C50.0043 27.2 49.6303 26.9715 49.2365 26.7248C48.9124 26.9092 48.6427 27.1455 48.6427 27.6683C48.6427 28.1451 48.947 28.5318 49.3234 28.5318V28.795H49.323ZM46.8869 42.8195L45.4955 41.6484L46.0766 40.9571C46.1538 40.866 46.9744 40.1613 47.7264 40.7944C47.9086 40.9483 48.2398 41.5629 47.5815 42.3453L47.2739 42.7112C47.2136 42.7822 47.0091 42.9222 46.8869 42.8195L46.5576 43.3754C46.6691 43.4697 46.5284 43.6982 46.59 43.75C46.6912 43.8356 46.7476 43.7273 46.8166 43.6457L47.9452 42.3041C49.0916 40.9438 48.3186 40.3973 48.1465 40.2511C47.5167 39.7212 46.7783 40.02 46.4137 40.2683C46.6069 39.7714 46.3067 39.4667 46.1751 39.3556C45.4433 38.7404 44.5493 39.7406 44.3698 39.9539L43.5653 40.9084C43.4969 40.9901 43.4 41.064 43.5015 41.1496C43.5627 41.2015 43.7643 41.0235 43.8761 41.1172L44.3471 40.6816C44.246 40.5953 44.2998 40.4498 44.5046 40.2061C44.6414 40.0434 45.1869 39.3744 45.7865 39.8787C45.9181 39.9902 46.1751 40.3973 45.9434 40.6712L45.276 41.4637L44.3468 40.6812L43.8758 41.1169L46.5573 43.375L46.8869 42.8195V42.8195Z" fill="#333333"/>
</svg>
