<svg width="55" height="56" viewBox="0 0 55 56" fill="none" xmlns="http://www.w3.org/2000/svg">
<path d="M46.9847 13.5578C47.8119 12.4063 47.6107 10.8971 46.4481 8.68357C46.4145 8.62768 46.4816 8.57178 46.5375 8.6165C52.0377 12.8199 46.7164 15.9278 44.7264 20.3995C44.7041 20.4554 44.6147 20.4331 44.6258 20.3772C44.6705 19.6729 44.6482 18.7897 44.6035 17.9177C43.7986 18.2531 42.7365 18.309 41.2385 18.2196C34.3744 17.5935 28.2033 12.2833 15.4253 13.7925C15.3694 13.8037 15.3583 13.7255 15.403 13.7143C30.1933 8.39291 36.4202 16.7551 44.3128 15.0223C44.2234 10.1369 33.3235 11.2101 34.5085 0.0419226C34.5197 -0.0139742 34.6203 -0.0139742 34.6315 0.0419226C36.1519 9.60028 46.9064 8.24758 46.9847 13.5578ZM7.39854 16.9116C12.8876 15.1117 16.8675 18.4208 20.3778 15.1117C20.4001 15.0782 20.3666 15.0223 20.3331 15.0335C16.9904 16.4756 13.2677 12.7529 7.34265 16.7774C7.29793 16.811 7.34265 16.9228 7.39854 16.9116ZM10.6965 31.9925H9.07545L9.28786 31.0647L9.2655 31.0423C8.96365 31.3889 8.57238 31.6683 8.11402 31.8584C7.64449 32.0484 7.14142 32.1602 6.59363 32.1602C5.81107 32.1602 5.21857 32.0037 4.84965 31.7131C4.46955 31.4112 4.2795 30.9976 4.25714 30.4833C4.25714 30.3715 4.25714 30.2374 4.26832 30.0921C4.26832 29.9467 4.29068 29.8126 4.31304 29.7008L5.2521 25.6427H6.97373L6.09056 29.5666C6.0682 29.6672 6.03466 29.7679 6.0123 29.8685C5.98994 29.9579 5.97876 30.0585 5.98994 30.148C5.98994 30.2039 5.98994 30.2709 6.00112 30.3827C6.0123 30.4833 6.05702 30.5839 6.1241 30.6846C6.19117 30.7852 6.31414 30.8746 6.47066 30.9529C6.63835 31.0311 6.88429 31.0647 7.20849 31.0647C7.54387 31.0647 7.84572 31.0088 8.1252 30.8858C8.39351 30.7628 8.63945 30.6175 8.85186 30.4274C9.05309 30.2374 9.23196 30.025 9.36611 29.7902C9.50026 29.5554 9.60088 29.3207 9.6456 29.0859L10.4282 25.6427H12.1498L10.6965 31.9925ZM14.0614 23.2056H15.7942L14.6651 28.1804L14.6987 28.2027L18.1643 25.6315H20.3442L16.9569 27.968L18.9804 31.9925H17.0687L15.6042 28.907L14.2962 29.8349L13.7931 31.9925H12.0715L14.0614 23.2056Z" fill="#333333"/>
<path d="M2.13305 46.794L2.03244 47.2412H2.04362C2.16659 47.0735 2.31192 46.9393 2.45725 46.8499C2.61376 46.7605 2.82617 46.7158 3.0833 46.7158C3.27335 46.7158 3.41868 46.7381 3.56401 46.794C3.70934 46.8499 3.82114 46.917 3.91057 47.0064C4.00001 47.0959 4.06708 47.2077 4.12298 47.3194C4.1677 47.4424 4.20123 47.5877 4.20123 47.7443C4.21241 47.9343 4.17888 48.1244 4.1118 48.3256C4.04472 48.5268 3.94411 48.6945 3.80996 48.8398C3.6758 48.9963 3.50811 49.1193 3.32924 49.2088C3.12802 49.3094 2.91561 49.3541 2.68084 49.3541C2.56905 49.3541 2.45725 49.3429 2.35664 49.3317C2.24485 49.3094 2.15541 49.2758 2.07716 49.2311C1.98772 49.1864 1.92064 49.1305 1.86475 49.0522C1.80885 48.9852 1.77531 48.8957 1.74177 48.7951H1.7306L1.41757 50.2149H1.07101L1.83121 46.7828H2.13305V46.794ZM2.51315 47.107C2.35664 47.1965 2.23367 47.3083 2.13305 47.4424C2.03244 47.5766 1.95418 47.7331 1.89829 47.9008C1.84239 48.0573 1.82003 48.225 1.83121 48.3815C1.84239 48.6051 1.90947 48.7839 2.0548 48.9069C2.20013 49.0299 2.39018 49.1081 2.6473 49.1081C2.84853 49.1081 3.0274 49.0634 3.17273 48.974C3.32924 48.8846 3.45222 48.7728 3.55283 48.6386C3.65345 48.5045 3.72052 48.3479 3.77642 48.1914C3.83232 48.0349 3.8435 47.8672 3.8435 47.7107C3.83232 47.4983 3.76524 47.3194 3.64227 47.1741C3.51929 47.04 3.31807 46.9617 3.04976 46.9617C2.84853 46.9729 2.66966 47.0176 2.51315 47.107ZM6.56008 46.7828C6.69423 46.8276 6.82839 46.8834 6.929 46.9729C7.02961 47.0623 7.10787 47.1629 7.16377 47.2859C7.21966 47.4089 7.2532 47.543 7.2532 47.6995C7.26438 47.912 7.23084 48.1132 7.16377 48.3256C7.10787 48.5268 7.00726 48.7057 6.88428 48.8622C6.76131 49.0187 6.59362 49.1417 6.40357 49.2311C6.20234 49.3206 5.97875 49.3653 5.69927 49.3653C5.33035 49.3653 5.03969 49.2758 4.83846 49.0858C4.63723 48.8957 4.53662 48.6386 4.52544 48.3256C4.52544 48.1244 4.5478 47.9231 4.61487 47.7331C4.68195 47.5319 4.77138 47.3642 4.91671 47.2188C5.05087 47.0735 5.21856 46.9505 5.40861 46.8611C5.60984 46.7717 5.83342 46.7269 6.09055 46.7269C6.25824 46.7158 6.41475 46.7381 6.56008 46.7828ZM6.2806 48.9852C6.42593 48.8957 6.5489 48.7839 6.63834 48.6498C6.72777 48.5156 6.79485 48.3703 6.85075 48.2138C6.89546 48.0573 6.91782 47.9008 6.90664 47.7554C6.89546 47.5207 6.82839 47.3306 6.67187 47.1853C6.52654 47.04 6.31414 46.9617 6.03465 46.9617C5.8446 46.9617 5.67691 47.0064 5.53158 47.0847C5.37507 47.1741 5.26327 47.2747 5.16266 47.3977C5.06205 47.5207 4.99497 47.666 4.93907 47.8225C4.89436 47.979 4.872 48.1355 4.872 48.2809C4.88318 48.5156 4.96143 48.7169 5.10676 48.8734C5.2521 49.0299 5.47568 49.1081 5.76635 49.1081C5.96758 49.1193 6.13526 49.0746 6.2806 48.9852ZM8.04694 46.794L8.32642 48.9293H8.3376L9.46672 46.794H9.88035L10.1375 48.9181H10.1487L11.3113 46.794H11.6802L10.2269 49.2982H9.84682L9.57851 47.1965H9.56733L8.43821 49.2982H8.05812L7.65566 46.794H8.04694ZM12.105 48.3256C12.1162 48.4374 12.1274 48.538 12.1609 48.6386C12.2057 48.728 12.2504 48.8175 12.3175 48.8846C12.3845 48.9516 12.4851 49.0075 12.5858 49.0522C12.6976 49.0858 12.8205 49.1081 12.9659 49.1081C13.2006 49.1081 13.4019 49.0522 13.5584 48.9293C13.7261 48.8175 13.8267 48.661 13.8937 48.4821H14.2403C14.1509 48.7616 14.0055 48.9852 13.7931 49.1305C13.5807 49.287 13.3012 49.3541 12.9547 49.3541C12.5746 49.3541 12.2727 49.2647 12.0715 49.0746C11.8703 48.8846 11.7585 48.6274 11.7473 48.3032C11.7473 48.102 11.7697 47.9008 11.8367 47.7107C11.8926 47.5207 11.9933 47.353 12.1274 47.1965C12.2504 47.0511 12.4181 46.9282 12.6081 46.8387C12.7982 46.7493 13.0218 46.7046 13.2677 46.7046C13.4354 46.7046 13.5919 46.7269 13.7261 46.7717C13.8602 46.8276 13.9832 46.8946 14.0726 46.9729C14.162 47.0623 14.2403 47.1629 14.2962 47.2747C14.3521 47.3865 14.3745 47.5319 14.3856 47.6772C14.3856 47.7443 14.3856 47.8225 14.3856 47.8896C14.3856 47.9567 14.3745 48.0349 14.3633 48.1132H12.1162C12.1162 48.1914 12.105 48.2473 12.105 48.3256ZM14.0391 47.7666C14.0391 47.7331 14.0391 47.6995 14.0391 47.6772C14.0279 47.4536 13.9496 47.2859 13.8155 47.1629C13.6702 47.04 13.4801 46.9617 13.223 46.9617C13.0777 46.9617 12.9547 46.9841 12.8317 47.04C12.7087 47.0959 12.5969 47.1629 12.5075 47.2412C12.4181 47.3194 12.351 47.4089 12.2839 47.5207C12.2168 47.6325 12.1721 47.7443 12.1498 47.8561H14.0279C14.0279 47.8337 14.0279 47.8002 14.0391 47.7666ZM15.403 46.794L15.28 47.3753H15.2912C15.403 47.1853 15.5371 47.04 15.6936 46.9282C15.8501 46.8052 16.0737 46.7605 16.3197 46.7605H16.4091C16.4315 46.7605 16.4426 46.7605 16.465 46.7605C16.4874 46.7605 16.4874 46.7605 16.5097 46.7605L16.4426 47.0623C16.4091 47.0623 16.3756 47.0623 16.342 47.0623C16.3085 47.0623 16.2749 47.0623 16.2414 47.0623C16.0849 47.0623 15.9508 47.0847 15.8278 47.1406C15.7048 47.1965 15.6042 47.2635 15.5259 47.353C15.4365 47.4424 15.3582 47.5319 15.3135 47.6436C15.2576 47.7554 15.2129 47.8672 15.1906 47.979L14.8999 49.287H14.5645L15.1123 46.7828H15.403V46.794ZM17.1917 46.794L16.6439 49.2982H16.3085L16.8563 46.794H17.1917ZM17.4041 45.8326L17.2923 46.3133H16.9457L17.0575 45.8326H17.4041ZM18.1978 46.794L18.1084 47.2412H18.1307C18.2313 47.0959 18.3655 46.9729 18.5444 46.8611C18.7232 46.7605 18.9245 46.7046 19.1369 46.7046C19.2598 46.7046 19.3828 46.7269 19.4834 46.7493C19.5952 46.7717 19.6847 46.8052 19.7629 46.8723C19.8412 46.9282 19.9082 46.9952 19.953 47.0735C19.9977 47.1629 20.02 47.2635 20.0312 47.3753C20.0312 47.4424 20.0089 47.543 19.9865 47.6772L19.6399 49.287H19.2934L19.6511 47.666C19.6623 47.6325 19.6735 47.5877 19.6735 47.543C19.6735 47.4871 19.6847 47.4536 19.6735 47.4089C19.6735 47.3306 19.6511 47.2524 19.6176 47.2077C19.584 47.1518 19.5281 47.107 19.4834 47.0623C19.4275 47.0288 19.3605 47.0064 19.2822 46.9841C19.2039 46.9617 19.1369 46.9617 19.0474 46.9617C18.9245 46.9617 18.8015 46.9841 18.6897 47.04C18.5667 47.0959 18.4549 47.1629 18.3655 47.2412C18.2649 47.3306 18.1754 47.4424 18.1084 47.5654C18.0413 47.6995 17.9854 47.8337 17.9519 48.0014L17.6612 49.287H17.3258L17.8736 46.7828H18.1978V46.794ZM22.636 49.6C22.5689 49.7565 22.4795 49.8907 22.3677 49.9913C22.2559 50.0919 22.1329 50.1702 21.9652 50.2261C21.8087 50.282 21.6299 50.3043 21.3951 50.3043C21.2498 50.3043 21.1044 50.282 20.9815 50.2484C20.8473 50.2261 20.7355 50.1814 20.6349 50.1143C20.5343 50.0584 20.4449 49.969 20.389 49.8683C20.3219 49.7677 20.2883 49.6336 20.2772 49.4882H20.6237C20.6237 49.6 20.6461 49.6895 20.702 49.7565C20.7579 49.8236 20.8138 49.8795 20.892 49.9242C20.9703 49.9578 21.0597 49.9913 21.1492 50.0137C21.2498 50.036 21.3392 50.036 21.451 50.036C21.5963 50.036 21.7193 50.0137 21.8311 49.9801C21.9429 49.9354 22.0323 49.8795 22.0994 49.8124C22.1777 49.7454 22.2336 49.6671 22.2894 49.5777C22.3342 49.4882 22.3789 49.3988 22.4124 49.3094C22.4348 49.2199 22.4683 49.1305 22.4907 49.0411C22.513 48.9516 22.5242 48.8734 22.5466 48.8063L22.5242 48.7951C22.4348 48.9405 22.3006 49.0634 22.1106 49.1305C21.9317 49.2088 21.7417 49.2535 21.5516 49.2535C21.3839 49.2535 21.2274 49.2311 21.0933 49.1752C20.9591 49.1193 20.8473 49.0522 20.7579 48.9628C20.6684 48.8734 20.5902 48.7616 20.5455 48.6386C20.4896 48.5156 20.4672 48.3703 20.4672 48.225C20.456 48.0349 20.4896 47.8561 20.5566 47.6772C20.6125 47.4983 20.7132 47.3418 20.825 47.1965C20.9479 47.0511 21.0933 46.9393 21.2833 46.8611C21.4622 46.7717 21.6634 46.7269 21.8982 46.7269C21.9988 46.7269 22.1106 46.7493 22.2112 46.7605C22.3118 46.7828 22.4124 46.8276 22.5019 46.8723C22.5913 46.9282 22.6584 46.9841 22.7254 47.0623C22.7925 47.1406 22.8372 47.2188 22.8484 47.3194H22.8596L22.9714 46.8052H23.2956L22.8149 49.0522C22.759 49.2535 22.7143 49.4435 22.636 49.6ZM20.8697 48.5045C20.9032 48.5939 20.9591 48.6833 21.015 48.7504C21.0821 48.8287 21.1715 48.8846 21.2609 48.9181C21.3616 48.9628 21.4734 48.9852 21.6075 48.9852C21.7864 48.9852 21.9429 48.9405 22.0882 48.8622C22.2224 48.7839 22.3453 48.6945 22.446 48.5715C22.5354 48.4486 22.6137 48.3144 22.6584 48.1579C22.7143 48.0126 22.7254 47.8672 22.7254 47.7331C22.7254 47.6213 22.7031 47.5207 22.6695 47.4312C22.6472 47.3418 22.5913 47.2524 22.5242 47.1853C22.4683 47.1182 22.3789 47.0623 22.2783 47.0288C22.1777 46.9952 22.0547 46.9729 21.9094 46.9729C21.7417 46.9729 21.574 47.0176 21.4398 47.0959C21.2945 47.1629 21.1715 47.2635 21.0821 47.3865C20.9926 47.4983 20.9256 47.6325 20.8697 47.7778C20.825 47.9231 20.8026 48.0685 20.8138 48.2026C20.8138 48.3032 20.8361 48.415 20.8697 48.5045ZM25.4309 48.7839C25.4756 48.8734 25.5426 48.9405 25.6209 48.9852C25.6992 49.0411 25.7774 49.0746 25.8892 49.0858C25.9786 49.1081 26.0904 49.1193 26.191 49.1193C26.2693 49.1193 26.3476 49.1081 26.437 49.097C26.5264 49.0746 26.6047 49.0411 26.6718 49.0075C26.7388 48.974 26.7947 48.9181 26.8395 48.8622C26.8842 48.8063 26.9065 48.7392 26.9065 48.6498C26.8954 48.5715 26.873 48.4933 26.8283 48.4486C26.7724 48.3927 26.7165 48.3479 26.6382 48.3032C26.5711 48.2585 26.4817 48.225 26.3923 48.1914C26.3028 48.1691 26.2022 48.1355 26.1128 48.102C26.0234 48.0796 25.9227 48.0349 25.8333 48.0014C25.7439 47.9678 25.6544 47.912 25.5762 47.8672C25.5091 47.8113 25.4532 47.7443 25.3973 47.6772C25.3526 47.5989 25.3302 47.5207 25.3302 47.4089C25.3191 47.2859 25.3526 47.1741 25.4197 47.0959C25.4867 47.0064 25.5762 46.9393 25.6768 46.8834C25.7774 46.8276 25.8892 46.794 26.0122 46.7605C26.1352 46.7381 26.2581 46.7158 26.3699 46.7158C26.5264 46.7158 26.6718 46.7381 26.7947 46.7605C26.9177 46.794 27.0295 46.8387 27.1189 46.9058C27.2084 46.9617 27.2866 47.0511 27.3425 47.1518C27.3984 47.2524 27.4208 47.3865 27.4208 47.5207H27.0519C27.063 47.4201 27.0407 47.3418 27.0071 47.2747C26.9624 47.2077 26.9177 47.1518 26.8506 47.107C26.7947 47.0511 26.7165 47.0288 26.627 47.0064C26.5376 46.9841 26.4482 46.9729 26.3587 46.9729C26.2805 46.9729 26.2022 46.9841 26.124 46.9952C26.0345 47.0064 25.9563 47.0288 25.8892 47.0511C25.8221 47.0847 25.7662 47.1294 25.7215 47.1741C25.6768 47.23 25.6656 47.2971 25.6656 47.3977C25.6656 47.4536 25.688 47.5095 25.7215 47.5542C25.7551 47.5989 25.8109 47.6436 25.8557 47.6772C25.9116 47.7107 25.9786 47.7443 26.0457 47.7778C26.124 47.8002 26.2022 47.8337 26.2805 47.8672C26.3811 47.9008 26.4929 47.9343 26.6047 47.979C26.7165 48.0126 26.8171 48.0685 26.9065 48.1132C26.996 48.1691 27.0742 48.2362 27.1413 48.3144C27.1972 48.4038 27.2307 48.4933 27.2419 48.6163C27.2419 48.7504 27.2084 48.8846 27.1525 48.974C27.0854 49.0634 26.9848 49.1529 26.8842 49.2088C26.7724 49.2647 26.6494 49.3094 26.5041 49.3317C26.3699 49.3541 26.2358 49.3653 26.0904 49.3653C25.9451 49.3653 25.811 49.3541 25.6768 49.3206C25.5426 49.287 25.4197 49.2311 25.3191 49.164C25.2184 49.097 25.1402 49.0075 25.0731 48.8957C25.0172 48.7839 24.9837 48.6498 24.9837 48.4821H25.3302C25.3526 48.6051 25.375 48.7057 25.4309 48.7839ZM29.6231 49.2982L29.7125 48.851H29.7014C29.6008 48.9963 29.4554 49.1193 29.2766 49.2199C29.1089 49.3205 28.9076 49.3653 28.684 49.3653C28.5611 49.3653 28.4493 49.3541 28.3375 49.3317C28.2369 49.3094 28.1363 49.2758 28.0692 49.2088C27.9797 49.1529 27.9238 49.0858 27.8791 49.0075C27.8232 48.9181 27.8121 48.8175 27.8009 48.7057C27.8009 48.6386 27.8121 48.538 27.8456 48.4038L28.1922 46.794H28.5387L28.181 48.415C28.1698 48.4486 28.1586 48.4933 28.1586 48.538C28.1474 48.5939 28.1474 48.6274 28.1474 48.6721C28.1586 48.7504 28.1698 48.8175 28.2033 48.8734C28.2369 48.9293 28.2816 48.9852 28.3375 49.0187C28.3934 49.0522 28.4605 49.0746 28.5387 49.097C28.6058 49.1193 28.684 49.1193 28.7623 49.1193C28.8965 49.1193 29.0194 49.097 29.1424 49.0411C29.2542 48.9852 29.366 48.9181 29.4554 48.8398C29.5449 48.7504 29.6343 48.6386 29.7014 48.5156C29.7796 48.3927 29.8243 48.2473 29.8579 48.0796L30.1374 46.794H30.4951L29.9361 49.2982H29.6231ZM32.9657 47.3194C32.921 47.2412 32.8763 47.1853 32.8092 47.1294C32.7533 47.0735 32.6751 47.04 32.5856 47.0064C32.4962 46.9841 32.3956 46.9617 32.295 46.9617C32.0826 46.9617 31.9037 47.0064 31.7472 47.0847C31.5907 47.1629 31.4677 47.2747 31.3671 47.3977C31.2665 47.5207 31.1882 47.666 31.1435 47.8337C31.0876 47.9902 31.0764 48.1579 31.0764 48.3144C31.0876 48.4262 31.0988 48.5268 31.1323 48.6274C31.1659 48.7169 31.2218 48.8063 31.2888 48.8734C31.3559 48.9405 31.4454 48.9963 31.546 49.0299C31.6466 49.0634 31.7696 49.0858 31.9037 49.0858C32.1385 49.0858 32.3285 49.0299 32.4962 48.9069C32.6639 48.7839 32.7645 48.6386 32.8316 48.4597H33.1782C33.0887 48.7504 32.921 48.974 32.7086 49.1193C32.4962 49.2758 32.2055 49.3429 31.8702 49.3429C31.5124 49.3429 31.2329 49.2535 31.0317 49.0634C30.8305 48.8734 30.7299 48.6274 30.7299 48.3144C30.7299 48.1132 30.7522 47.9343 30.8193 47.7331C30.8864 47.5319 30.987 47.3642 31.11 47.2188C31.2329 47.0623 31.4006 46.9393 31.5907 46.8387C31.7807 46.7493 32.0043 46.6934 32.2391 46.6934C32.3956 46.6934 32.5409 46.7158 32.6751 46.7493C32.8092 46.7828 32.9322 46.8387 33.0216 46.9058C33.1223 46.9729 33.2005 47.0623 33.2564 47.1741C33.3123 47.2859 33.3458 47.4089 33.3458 47.5542H32.9993C33.0216 47.4871 32.9993 47.3977 32.9657 47.3194ZM35.8612 47.3194C35.8277 47.2412 35.7718 47.1853 35.7159 47.1294C35.6488 47.0735 35.5705 47.04 35.4811 47.0064C35.3917 46.9841 35.3022 46.9617 35.1904 46.9617C34.978 46.9617 34.7992 47.0064 34.6426 47.0847C34.4861 47.1629 34.3743 47.2747 34.2626 47.3977C34.1619 47.5207 34.0837 47.666 34.039 47.8337C33.9942 47.9902 33.9719 48.1579 33.9831 48.3144C33.9831 48.4262 34.0054 48.5268 34.039 48.6274C34.0725 48.7169 34.1284 48.8063 34.1955 48.8734C34.2626 48.9405 34.352 48.9963 34.4526 49.0299C34.5532 49.0634 34.6762 49.0858 34.8103 49.0858C35.0451 49.0858 35.2463 49.0299 35.4028 48.9069C35.5705 48.7839 35.6712 48.6386 35.7382 48.4597H36.096C35.9954 48.7504 35.8277 48.974 35.6153 49.1193C35.4028 49.2758 35.1234 49.3429 34.7768 49.3429C34.4191 49.3429 34.1508 49.2535 33.9495 49.0634C33.7483 48.8734 33.6477 48.6274 33.6477 48.3144C33.6365 48.1132 33.67 47.9343 33.7371 47.7331C33.8042 47.5319 33.9048 47.3642 34.039 47.2188C34.1619 47.0623 34.3296 46.9393 34.5197 46.8387C34.7097 46.7493 34.9333 46.6934 35.1793 46.6934C35.3358 46.6934 35.4811 46.7158 35.6153 46.7493C35.7494 46.7828 35.8612 46.8387 35.9618 46.9058C36.0513 46.9729 36.1295 47.0623 36.1966 47.1741C36.2525 47.2859 36.2748 47.4089 36.2748 47.5542H35.9283C35.9059 47.4871 35.8947 47.3977 35.8612 47.3194ZM36.8785 48.3256C36.8785 48.4374 36.9009 48.538 36.9344 48.6386C36.968 48.728 37.0239 48.8175 37.1021 48.8846C37.1692 48.9516 37.2586 49.0075 37.3704 49.0522C37.471 49.0858 37.6052 49.1081 37.7393 49.1081C37.9741 49.1081 38.1753 49.0522 38.3318 48.9293C38.4884 48.8175 38.6001 48.661 38.6672 48.4821H39.0138C38.9243 48.7616 38.779 48.9852 38.5666 49.1305C38.3654 49.287 38.0859 49.3541 37.7282 49.3541C37.3481 49.3541 37.0574 49.2647 36.8562 49.0746C36.6549 48.8846 36.5543 48.6274 36.5431 48.3032C36.532 48.102 36.5655 47.9008 36.6326 47.7107C36.6997 47.5207 36.8003 47.353 36.9232 47.1965C37.0462 47.0511 37.2139 46.9282 37.404 46.8387C37.594 46.7493 37.8064 46.7046 38.0524 46.7046C38.2312 46.7046 38.3877 46.7269 38.5219 46.7717C38.656 46.8276 38.7678 46.8946 38.8685 46.9729C38.9579 47.0623 39.0361 47.1629 39.092 47.2747C39.1479 47.3977 39.1703 47.5319 39.1703 47.6772C39.1815 47.7443 39.1815 47.8225 39.1703 47.8896C39.1703 47.9567 39.1703 48.0349 39.1479 48.1132H36.8897C36.8785 48.1914 36.8785 48.2473 36.8785 48.3256ZM38.8014 47.7666C38.8014 47.7331 38.8014 47.6995 38.8014 47.6772C38.7902 47.4536 38.7231 47.2859 38.5778 47.1629C38.4325 47.04 38.2424 46.9617 37.9965 46.9617C37.8511 46.9617 37.717 46.9841 37.594 47.04C37.471 47.0959 37.3704 47.1629 37.281 47.2412C37.1915 47.3194 37.1133 47.4089 37.0462 47.5207C36.9903 47.6325 36.9456 47.7443 36.9232 47.8561H38.8014C38.8014 47.8337 38.8014 47.8002 38.8014 47.7666ZM39.774 48.7839C39.8299 48.8734 39.8858 48.9405 39.964 48.9852C40.0423 49.0411 40.1317 49.0746 40.2323 49.0858C40.3329 49.1081 40.4336 49.1193 40.5342 49.1193C40.6124 49.1193 40.6907 49.1081 40.7801 49.097C40.8696 49.0746 40.9478 49.0411 41.0149 49.0075C41.082 48.974 41.1379 48.9181 41.1826 48.8622C41.2385 48.8063 41.2497 48.7392 41.2497 48.6498C41.2497 48.5715 41.2273 48.4933 41.1714 48.4486C41.1155 48.3927 41.0596 48.3479 40.9925 48.3032C40.9143 48.2585 40.8248 48.225 40.7354 48.1914C40.646 48.1691 40.5454 48.1355 40.4559 48.102C40.3665 48.0796 40.2659 48.0349 40.1764 48.0014C40.087 47.9678 39.9976 47.912 39.9305 47.8672C39.8522 47.8113 39.7963 47.7443 39.7516 47.6772C39.6957 47.5989 39.6734 47.5207 39.6734 47.4089C39.6734 47.2859 39.6957 47.1741 39.7628 47.0959C39.8187 47.0064 39.9081 46.9393 40.0087 46.8834C40.1094 46.8276 40.2323 46.794 40.3441 46.7605C40.4671 46.7381 40.5901 46.7158 40.713 46.7158C40.8696 46.7158 41.0037 46.7381 41.1267 46.7605C41.2497 46.794 41.3614 46.8387 41.4621 46.9058C41.5515 46.9617 41.6186 47.0511 41.6745 47.1518C41.7304 47.2524 41.7527 47.3865 41.7639 47.5207H41.4062C41.4173 47.4201 41.395 47.3418 41.3614 47.2747C41.3279 47.2077 41.272 47.1518 41.2161 47.107C41.149 47.0511 41.082 47.0288 40.9925 47.0064C40.9031 46.9841 40.8137 46.9729 40.7242 46.9729C40.6348 46.9729 40.5677 46.9841 40.4783 46.9952C40.3888 47.0064 40.3218 47.0288 40.2547 47.0511C40.1876 47.0847 40.1317 47.1294 40.087 47.1741C40.0311 47.23 40.0199 47.2971 40.0199 47.3977C40.0199 47.4536 40.0423 47.5095 40.0758 47.5542C40.1094 47.5989 40.1541 47.6436 40.21 47.6772C40.2659 47.7107 40.3329 47.7443 40.4 47.7778C40.4783 47.8002 40.5565 47.8337 40.6348 47.8672C40.7354 47.9008 40.836 47.9343 40.9478 47.979C41.0596 48.0126 41.1602 48.0685 41.2497 48.1132C41.3391 48.1691 41.4173 48.2362 41.4844 48.3144C41.5515 48.4038 41.585 48.4933 41.585 48.6163C41.585 48.7504 41.5627 48.8846 41.4956 48.974C41.4285 49.0634 41.3391 49.1529 41.2273 49.2088C41.1155 49.2647 40.9925 49.3094 40.8584 49.3317C40.7242 49.3541 40.5789 49.3653 40.4447 49.3653C40.3106 49.3653 40.1764 49.3541 40.0311 49.3206C39.9081 49.287 39.7852 49.2311 39.6845 49.164C39.5839 49.097 39.4945 49.0075 39.4386 48.8957C39.3827 48.7839 39.3492 48.6498 39.3492 48.4821H39.6957C39.6957 48.6051 39.7181 48.7057 39.774 48.7839ZM42.457 48.7839C42.5017 48.8734 42.5688 48.9405 42.6471 48.9852C42.7253 49.0411 42.8036 49.0746 42.9154 49.0858C43.0048 49.1081 43.1166 49.1193 43.2172 49.1193C43.2955 49.1193 43.3737 49.1081 43.452 49.097C43.5414 49.0746 43.6197 49.0411 43.6868 49.0075C43.7538 48.974 43.8097 48.9181 43.8544 48.8622C43.8992 48.8063 43.9215 48.7392 43.9103 48.6498C43.9103 48.5715 43.888 48.4933 43.8433 48.4486C43.7874 48.3927 43.7315 48.3479 43.6532 48.3032C43.5861 48.2585 43.4967 48.225 43.4073 48.1914C43.3178 48.1691 43.2172 48.1355 43.1278 48.102C43.0384 48.0796 42.9377 48.0349 42.8483 48.0014C42.7589 47.9678 42.6694 47.912 42.5912 47.8672C42.5241 47.8113 42.4682 47.7443 42.4123 47.6772C42.3676 47.5989 42.3452 47.5207 42.3341 47.4089C42.3341 47.2859 42.3676 47.1741 42.4235 47.0959C42.4906 47.0064 42.58 46.9393 42.6806 46.8834C42.7812 46.8276 42.893 46.794 43.016 46.7605C43.139 46.7381 43.2619 46.7158 43.3737 46.7158C43.5302 46.7158 43.6644 46.7381 43.7874 46.7605C43.9103 46.794 44.0221 46.8387 44.1228 46.9058C44.2122 46.9617 44.2904 47.0511 44.3463 47.1518C44.4022 47.2524 44.4246 47.3865 44.4246 47.5207H44.078C44.078 47.4201 44.0669 47.3418 44.0221 47.2747C43.9886 47.2077 43.9439 47.1518 43.8768 47.107C43.8209 47.0511 43.7427 47.0288 43.6532 47.0064C43.5638 46.9841 43.4743 46.9729 43.3849 46.9729C43.3067 46.9729 43.2172 46.9841 43.1501 46.9952C43.0607 47.0064 42.9825 47.0288 42.9154 47.0511C42.8483 47.0847 42.7924 47.1294 42.7477 47.1741C42.703 47.23 42.6806 47.2971 42.6918 47.3977C42.6918 47.4536 42.7142 47.5095 42.7477 47.5542C42.7812 47.5989 42.8259 47.6436 42.8818 47.6772C42.9377 47.7107 43.0048 47.7443 43.0719 47.7778C43.139 47.8002 43.2284 47.8337 43.3067 47.8672C43.4073 47.9008 43.5191 47.9343 43.6309 47.979C43.7427 48.0126 43.8321 48.0685 43.9327 48.1132C44.0221 48.1691 44.1004 48.2362 44.1675 48.3144C44.2234 48.4038 44.2569 48.4933 44.2569 48.6163C44.2681 48.7504 44.2345 48.8846 44.1675 48.974C44.1116 49.0634 44.011 49.1529 43.8992 49.2088C43.7986 49.2647 43.6644 49.3094 43.5302 49.3317C43.3961 49.3541 43.2619 49.3653 43.1166 49.3653C42.9713 49.3653 42.8371 49.3541 42.703 49.3206C42.5688 49.287 42.4458 49.2311 42.3452 49.164C42.2446 49.097 42.1664 49.0075 42.0993 48.8957C42.0434 48.7839 42.0099 48.6498 42.0099 48.4821H42.3564C42.3788 48.6051 42.4011 48.7057 42.457 48.7839ZM0.93686 52.3837L0.377892 54.8879H0.042511L0.5903 52.3837H0.93686ZM1.14927 51.4223L1.03747 51.903H0.690914L0.802707 51.4223H1.14927ZM1.943 52.3837L1.85357 52.8309H1.87593C1.97654 52.6855 2.11069 52.5626 2.28956 52.4619C2.46843 52.3613 2.66966 52.3054 2.88207 52.3054C3.00504 52.3054 3.12802 52.3278 3.22863 52.3502C3.34042 52.3725 3.42986 52.4061 3.50811 52.4731C3.58637 52.529 3.64227 52.5961 3.69816 52.6744C3.74288 52.7638 3.76524 52.8644 3.76524 52.9762C3.76524 53.0433 3.75406 53.1439 3.7317 53.278L3.37396 54.8879H3.01622L3.37396 53.2669C3.39632 53.2333 3.39632 53.1886 3.39632 53.1439C3.4075 53.088 3.4075 53.0545 3.4075 53.0097C3.4075 52.9315 3.38514 52.8532 3.3516 52.8085C3.31807 52.7526 3.26217 52.7079 3.21745 52.6632C3.16155 52.6296 3.09448 52.6073 3.01622 52.5849C2.93797 52.5626 2.85971 52.5626 2.78146 52.5626C2.65848 52.5626 2.53551 52.5849 2.41254 52.6408C2.28956 52.6967 2.18895 52.7638 2.08833 52.8421C1.9989 52.9315 1.90946 53.0433 1.84239 53.1663C1.76413 53.3004 1.71942 53.4346 1.68588 53.6022L1.40639 54.8879H1.05983L1.6188 52.3837H1.943ZM4.51426 54.3736C4.57015 54.4631 4.62605 54.5301 4.70431 54.5749C4.78256 54.6307 4.872 54.6643 4.97261 54.6755C5.07323 54.6978 5.17384 54.709 5.27445 54.709C5.36389 54.709 5.43097 54.6978 5.5204 54.6866C5.60984 54.6643 5.67691 54.6307 5.75517 54.5972C5.82224 54.5525 5.87814 54.5078 5.92286 54.4519C5.97875 54.396 5.98993 54.3289 5.98993 54.2395C5.98993 54.1612 5.96757 54.083 5.91168 54.0382C5.86696 53.9823 5.79988 53.9376 5.73281 53.8929C5.65455 53.8482 5.5763 53.8147 5.47568 53.7811C5.38625 53.7588 5.28563 53.7252 5.1962 53.6917C5.10676 53.6693 5.00615 53.6246 4.91671 53.5911C4.82728 53.5575 4.74902 53.5016 4.67077 53.4569C4.59251 53.401 4.53662 53.3339 4.4919 53.2669C4.436 53.1886 4.41364 53.1104 4.41364 52.9986C4.41364 52.8756 4.436 52.7638 4.50308 52.6855C4.55898 52.5961 4.64841 52.529 4.74902 52.4731C4.84964 52.4172 4.97261 52.3837 5.0844 52.3502C5.20738 52.3278 5.33035 52.3054 5.45332 52.3054C5.60984 52.3054 5.74399 52.3278 5.86696 52.3502C5.98993 52.3837 6.10173 52.4284 6.20234 52.4955C6.29178 52.5514 6.35885 52.6408 6.41475 52.7414C6.47065 52.842 6.50418 52.9762 6.50418 53.1215H6.14644C6.15762 53.0209 6.13527 52.9427 6.10173 52.8756C6.06819 52.8085 6.01229 52.7526 5.9564 52.7079C5.9005 52.652 5.82224 52.6296 5.73281 52.6073C5.64337 52.5849 5.55394 52.5737 5.4645 52.5737C5.37507 52.5737 5.30799 52.5849 5.21856 52.5961C5.12912 52.6073 5.06205 52.6296 4.99497 52.652C4.92789 52.6855 4.872 52.7303 4.82728 52.775C4.77138 52.8309 4.7602 52.8979 4.7602 52.9986C4.7602 53.0545 4.78256 53.1104 4.8161 53.1551C4.84964 53.1998 4.89436 53.2445 4.95025 53.278C5.00615 53.3116 5.07323 53.3451 5.15148 53.3787C5.21856 53.401 5.29681 53.4346 5.38625 53.4681C5.48686 53.5016 5.58748 53.5352 5.69927 53.5799C5.81106 53.6134 5.91168 53.6693 6.00111 53.714C6.09055 53.7699 6.1688 53.837 6.23588 53.9153C6.30296 54.0047 6.33649 54.0941 6.33649 54.2171C6.33649 54.3513 6.31413 54.4854 6.24706 54.5749C6.17998 54.6643 6.09055 54.7537 5.97875 54.8096C5.86696 54.8655 5.74399 54.9102 5.60983 54.9326C5.47568 54.955 5.34153 54.9661 5.1962 54.9661C5.06205 54.9661 4.92789 54.9438 4.78256 54.9214C4.65959 54.8879 4.53662 54.832 4.436 54.7649C4.33539 54.6978 4.24595 54.6084 4.19006 54.4966C4.13416 54.3848 4.10062 54.2506 4.10062 54.083H4.436C4.436 54.1948 4.45836 54.2954 4.51426 54.3736ZM7.6333 52.3837L7.54387 52.8309H7.55505C7.67802 52.6632 7.81217 52.529 7.96868 52.4396C8.12519 52.3502 8.3376 52.3054 8.58355 52.3054C8.7736 52.3054 8.93011 52.3278 9.06426 52.3837C9.19841 52.4396 9.32138 52.5067 9.41082 52.5849C9.50025 52.6744 9.56733 52.7862 9.61205 52.9091C9.66794 53.0321 9.6903 53.1774 9.70148 53.3339C9.70148 53.524 9.66794 53.714 9.61205 53.9153C9.54497 54.1165 9.44436 54.2842 9.31021 54.4295C9.18723 54.586 9.01954 54.709 8.82949 54.8096C8.63944 54.9102 8.41586 54.955 8.18109 54.955C8.0693 54.955 7.9575 54.9438 7.85689 54.9326C7.75627 54.9102 7.65566 54.8767 7.5774 54.832C7.48797 54.7873 7.42089 54.7314 7.36499 54.6531C7.3091 54.586 7.27556 54.4966 7.2532 54.396H7.23084L6.91782 55.8158H6.58244L7.33146 52.3837H7.6333V52.3837ZM8.02458 52.6967C7.86807 52.7862 7.74509 52.8979 7.64448 53.0321C7.54386 53.1663 7.46561 53.3228 7.40971 53.4905C7.35382 53.647 7.33146 53.8147 7.33146 53.9712C7.34264 54.1948 7.42089 54.3736 7.56622 54.4966C7.70038 54.6196 7.90161 54.6978 8.15873 54.6978C8.35996 54.6978 8.53883 54.6531 8.68416 54.5637C8.84067 54.4742 8.95247 54.3624 9.06426 54.2283C9.15369 54.0941 9.23195 53.9376 9.28785 53.7811C9.33256 53.6246 9.35492 53.4569 9.34374 53.3004C9.34374 53.088 9.27667 52.9091 9.14252 52.7638C9.01954 52.6296 8.81831 52.5514 8.55001 52.5514C8.35996 52.5626 8.18109 52.6185 8.02458 52.6967ZM10.8418 52.3837L10.2828 54.8879H9.93625L10.484 52.3837H10.8418ZM11.0542 51.4223L10.9424 51.903H10.5958L10.7076 51.4223H11.0542ZM11.8367 52.3837L11.7026 52.965H11.7249C11.8256 52.775 11.9597 52.6296 12.1274 52.5178C12.2839 52.3949 12.4963 52.3502 12.7535 52.3502H12.8429C12.8652 52.3502 12.8764 52.3502 12.8988 52.3502C12.9211 52.3502 12.9323 52.3502 12.9435 52.3502L12.8764 52.652C12.8429 52.652 12.8093 52.652 12.7758 52.652C12.7423 52.652 12.7087 52.652 12.6864 52.652C12.5187 52.652 12.3845 52.6744 12.2727 52.7303C12.1498 52.7862 12.0492 52.8532 11.9709 52.9427C11.8815 53.0321 11.8032 53.1215 11.7585 53.2333C11.7026 53.3451 11.6691 53.4569 11.6355 53.5687L11.3448 54.8767H10.9983L11.5461 52.3725H11.8367V52.3837ZM13.6143 52.3837L13.0665 54.8879H12.7199L13.2677 52.3837H13.6143ZM13.8378 51.4223L13.7261 51.903H13.3795L13.4801 51.4223H13.8378ZM14.6204 52.3837L14.531 52.8309H14.5422C14.6428 52.6855 14.7881 52.5626 14.967 52.4619C15.1347 52.3613 15.3359 52.3054 15.5595 52.3054C15.6824 52.3054 15.7942 52.3278 15.906 52.3502C16.0066 52.3725 16.0961 52.4061 16.1743 52.4731C16.2638 52.529 16.3197 52.5961 16.3644 52.6744C16.4203 52.7638 16.4315 52.8644 16.4426 52.9762C16.4426 53.0433 16.4315 53.1439 16.3979 53.278L16.0514 54.8879H15.7048L16.0625 53.2669C16.0737 53.2333 16.0849 53.1886 16.0849 53.1439C16.0961 53.088 16.0961 53.0545 16.0961 53.0097C16.0849 52.9315 16.0737 52.8532 16.0402 52.8085C16.0066 52.7526 15.9619 52.7079 15.906 52.6632C15.8501 52.6296 15.7831 52.6073 15.716 52.5849C15.6489 52.5626 15.5707 52.5626 15.4924 52.5626C15.3694 52.5626 15.2464 52.5849 15.1235 52.6408C15.0005 52.6967 14.8887 52.7638 14.7993 52.8421C14.6987 52.9315 14.6092 53.0433 14.5422 53.1663C14.4751 53.3004 14.4192 53.4346 14.3856 53.6022L14.1062 54.8879H13.7484L14.2962 52.3837H14.6204ZM19.0586 55.1897C18.9804 55.3462 18.9021 55.4804 18.7903 55.581C18.6785 55.6816 18.5555 55.7599 18.3879 55.8158C18.2313 55.8717 18.0413 55.894 17.8289 55.894C17.6724 55.894 17.5382 55.8717 17.4041 55.8381C17.2811 55.8158 17.1581 55.771 17.0575 55.704C16.9569 55.6481 16.8675 55.5586 16.8116 55.458C16.7557 55.3462 16.7221 55.2233 16.7109 55.0779H17.0463C17.0575 55.1897 17.0799 55.2792 17.1246 55.3462C17.1805 55.4133 17.2364 55.4692 17.3146 55.5139C17.3929 55.5475 17.4711 55.581 17.5718 55.6034C17.6724 55.6257 17.773 55.6257 17.8736 55.6257C18.0189 55.6257 18.1419 55.6034 18.2537 55.5698C18.3543 55.5251 18.4437 55.4692 18.522 55.4021C18.5891 55.3351 18.645 55.2568 18.7009 55.1674C18.7568 55.0779 18.7903 54.9885 18.8238 54.8991C18.8574 54.8096 18.8797 54.7202 18.9021 54.6307C18.9245 54.5413 18.9468 54.4631 18.958 54.396L18.9468 54.3848C18.8574 54.5301 18.7121 54.6531 18.5332 54.7202C18.3543 54.7984 18.1643 54.8432 17.9742 54.8432C17.8065 54.8432 17.65 54.8208 17.5159 54.7649C17.3817 54.709 17.2699 54.6419 17.1805 54.5525C17.091 54.4631 17.024 54.3513 16.9681 54.2283C16.9234 54.1053 16.8898 53.96 16.8898 53.8147C16.8786 53.6246 16.9122 53.4457 16.9793 53.2669C17.0351 53.088 17.1358 52.9315 17.2587 52.7862C17.3817 52.6408 17.527 52.529 17.7059 52.4396C17.8848 52.3502 18.086 52.3166 18.3208 52.3166C18.4326 52.3166 18.5332 52.3278 18.6338 52.3502C18.7456 52.3725 18.835 52.4061 18.9245 52.4619C19.0139 52.5178 19.0922 52.5737 19.1592 52.652C19.2151 52.7303 19.2598 52.8085 19.2822 52.9091H19.3046L19.4052 52.3949H19.7294L19.2487 54.6419C19.1928 54.8432 19.1257 55.0332 19.0586 55.1897ZM17.2923 54.0941C17.3258 54.1836 17.3817 54.273 17.4488 54.3401C17.5159 54.4183 17.5941 54.4631 17.6947 54.5078C17.7842 54.5525 17.9071 54.5749 18.0301 54.5749C18.209 54.5749 18.3767 54.5301 18.5108 54.4519C18.6562 54.3736 18.7679 54.2842 18.8686 54.1612C18.958 54.0382 19.0363 53.8929 19.081 53.7476C19.1369 53.6022 19.1592 53.4569 19.148 53.3228C19.148 53.211 19.1257 53.1104 19.0921 53.0209C19.0698 52.9315 19.0139 52.8421 18.958 52.775C18.8909 52.7079 18.8015 52.652 18.7009 52.6185C18.6003 52.5849 18.4773 52.5626 18.3431 52.5626C18.1643 52.5626 18.0078 52.6073 17.8624 52.6744C17.7171 52.7526 17.6053 52.8532 17.5159 52.965C17.4152 53.088 17.3482 53.2221 17.3035 53.3675C17.2476 53.5128 17.2364 53.6581 17.2364 53.7923C17.2364 53.9041 17.2587 54.0047 17.2923 54.0941ZM22.2894 52.3837L21.7417 54.8879H21.3951L21.9429 52.3837H22.2894ZM22.5019 51.4223L22.3901 51.903H22.0435L22.1553 51.4223H22.5019ZM23.2844 52.3837L23.195 52.8197L23.2062 52.8309C23.3068 52.6855 23.4409 52.5626 23.6198 52.4619C23.7987 52.3613 23.9999 52.3054 24.2123 52.3054C24.4135 52.3054 24.5812 52.3502 24.7042 52.4396C24.8272 52.529 24.8942 52.6632 24.9278 52.8421H24.939C25.0508 52.6855 25.1849 52.5626 25.3526 52.4619C25.5203 52.3613 25.7103 52.3054 25.9339 52.3054C26.2022 52.3054 26.4146 52.3613 26.5376 52.4955C26.6718 52.6185 26.7388 52.775 26.7388 52.9762C26.7388 53.0209 26.7388 53.0656 26.7277 53.1104C26.7277 53.1663 26.7165 53.1998 26.7053 53.2557L26.3476 54.8879H26.001L26.3699 53.2445C26.3923 53.1551 26.3923 53.0768 26.3923 52.9986C26.3923 52.8756 26.3364 52.7638 26.2581 52.6967C26.1687 52.6073 26.0234 52.5737 25.8445 52.5737C25.688 52.5737 25.5538 52.6073 25.442 52.6632C25.3302 52.7191 25.2408 52.8085 25.1514 52.9203C25.0731 53.0209 25.006 53.1439 24.9501 53.2892C24.8942 53.4346 24.8607 53.5799 24.816 53.7364L24.57 54.8991H24.2123L24.57 53.2669C24.5924 53.1886 24.6036 53.1104 24.6036 53.0321C24.5924 52.9091 24.5477 52.7973 24.4806 52.7191C24.4024 52.6296 24.2794 52.5849 24.1005 52.5849C23.9775 52.5849 23.8546 52.6185 23.7428 52.6744C23.631 52.7303 23.5304 52.7973 23.4409 52.8979C23.3515 52.9874 23.2732 53.0992 23.2062 53.2333C23.1391 53.3675 23.0832 53.5016 23.0496 53.647L22.7813 54.9102H22.4348L22.9826 52.4061H23.2844V52.3837ZM27.9574 52.3837L27.8568 52.8309H27.8791C28.0021 52.6632 28.1363 52.529 28.2928 52.4396C28.4493 52.3502 28.6505 52.3054 28.9076 52.3054C29.0977 52.3054 29.2542 52.3278 29.3883 52.3837C29.5225 52.4396 29.6343 52.5067 29.7237 52.5849C29.8132 52.6744 29.8914 52.7862 29.9361 52.9091C29.992 53.0321 30.0144 53.1774 30.0144 53.3339C30.0256 53.524 29.992 53.714 29.925 53.9153C29.8579 54.1165 29.7684 54.2842 29.6231 54.4295C29.489 54.586 29.3213 54.709 29.1424 54.8096C28.9524 54.9102 28.7288 54.955 28.494 54.955C28.3822 54.955 28.2704 54.9438 28.1698 54.9326C28.0692 54.9102 27.9797 54.8767 27.8903 54.832C27.8009 54.7873 27.7338 54.7314 27.6779 54.6531C27.622 54.586 27.5885 54.4966 27.5549 54.396H27.5438L27.2307 55.8158H26.8953L27.6444 52.3837H27.9574V52.3837ZM28.3487 52.6967C28.1922 52.7862 28.0692 52.8979 27.9686 53.0321C27.868 53.1663 27.7897 53.3228 27.7338 53.4905C27.6779 53.647 27.6555 53.8147 27.6555 53.9712C27.6667 54.1948 27.745 54.3736 27.8791 54.4966C28.0245 54.6196 28.2145 54.6978 28.4828 54.6978C28.6729 54.6978 28.8629 54.6531 29.0082 54.5637C29.1536 54.4742 29.2766 54.3624 29.3883 54.2283C29.4778 54.0941 29.556 53.9376 29.6008 53.7811C29.6567 53.6246 29.679 53.4569 29.6678 53.3004C29.6567 53.088 29.5896 52.9091 29.4666 52.7638C29.3436 52.6296 29.1424 52.5514 28.8741 52.5514C28.6729 52.5626 28.5052 52.6185 28.3487 52.6967ZM30.7411 52.7638C30.8081 52.6632 30.8976 52.5737 31.0094 52.5067C31.1211 52.4396 31.2441 52.3949 31.3783 52.3613C31.5124 52.3278 31.6578 52.3054 31.8143 52.3054C31.9037 52.3054 32.0155 52.3166 32.1273 52.3278C32.2503 52.3502 32.3621 52.3725 32.4627 52.4172C32.5633 52.462 32.6527 52.5178 32.7198 52.5849C32.7869 52.6632 32.8204 52.7414 32.8204 52.8644C32.8316 52.9203 32.8204 52.9874 32.8092 53.0656C32.7869 53.1439 32.7869 53.211 32.7645 53.2892C32.7422 53.3675 32.731 53.4457 32.7086 53.524C32.6863 53.5911 32.6751 53.6581 32.6527 53.714C32.6304 53.8594 32.5968 53.9712 32.5745 54.0606C32.5521 54.15 32.5297 54.2283 32.5186 54.2954C32.4962 54.3513 32.4962 54.4072 32.485 54.4519C32.485 54.4854 32.4739 54.5301 32.4739 54.5749C32.485 54.6196 32.4962 54.6419 32.5409 54.6643C32.5856 54.6755 32.6304 54.6866 32.6639 54.6866C32.6863 54.6866 32.7198 54.6755 32.7422 54.6755C32.7645 54.6755 32.7869 54.6755 32.8092 54.6643L32.7645 54.8991C32.6751 54.9214 32.5745 54.9214 32.4739 54.9214C32.2726 54.9214 32.172 54.832 32.1608 54.6531C32.1608 54.6307 32.1608 54.6084 32.1608 54.586C32.1608 54.5637 32.1608 54.5413 32.172 54.519L32.1497 54.5078C32.0602 54.6531 31.9149 54.7649 31.736 54.8432C31.5571 54.9326 31.3559 54.9661 31.1659 54.9661C31.0317 54.9661 30.9087 54.955 30.7858 54.9326C30.674 54.9102 30.5845 54.8655 30.4951 54.8096C30.4168 54.7537 30.3498 54.6866 30.3051 54.586C30.2492 54.4966 30.2268 54.396 30.2156 54.273C30.2156 54.15 30.238 54.0382 30.2939 53.9376C30.3498 53.8482 30.4168 53.7699 30.5063 53.714C30.5957 53.6581 30.6963 53.6022 30.8193 53.5687C30.9423 53.5352 31.0541 53.5128 31.1882 53.4905C31.3783 53.4681 31.5571 53.4457 31.7025 53.4569C31.859 53.4569 31.982 53.4346 32.0938 53.4122C32.2167 53.3898 32.295 53.3451 32.3509 53.278C32.4068 53.211 32.4403 53.088 32.4291 52.9315C32.4291 52.8532 32.4068 52.7973 32.3732 52.7414C32.3285 52.6967 32.2838 52.652 32.2279 52.6296C32.172 52.6073 32.1049 52.5849 32.0267 52.5737C31.9484 52.5626 31.8813 52.5514 31.8143 52.5514C31.7025 52.5514 31.6019 52.5626 31.5012 52.5849C31.4006 52.6073 31.3112 52.6408 31.2329 52.6744C31.1547 52.7191 31.0876 52.775 31.0429 52.8421C30.987 52.9203 30.9535 52.9986 30.9423 53.1104H30.5957C30.6293 52.9874 30.674 52.8644 30.7411 52.7638ZM32.3509 53.5463C32.3173 53.5687 32.2726 53.6022 32.2279 53.6134C32.172 53.6358 32.1161 53.647 32.0602 53.6581C32.0043 53.6693 31.9372 53.6805 31.8813 53.6805C31.8255 53.6805 31.7696 53.6917 31.7248 53.6917C31.613 53.7029 31.4901 53.714 31.3559 53.714C31.2329 53.7364 31.11 53.7476 30.987 53.7923C30.8752 53.8258 30.7858 53.8817 30.7075 53.9488C30.6293 54.0271 30.5957 54.1277 30.5957 54.2618C30.5957 54.3401 30.6181 54.4072 30.6516 54.4631C30.6852 54.519 30.7411 54.5637 30.7969 54.5972C30.8528 54.6419 30.9199 54.6643 30.9982 54.6866C31.0764 54.709 31.1659 54.709 31.2329 54.709C31.5236 54.709 31.7472 54.6419 31.9149 54.5078C32.0826 54.3848 32.1944 54.2059 32.2503 53.9712L32.3509 53.5463ZM35.4699 52.9091C35.4364 52.8309 35.3805 52.775 35.3246 52.7191C35.2687 52.6632 35.1904 52.6296 35.101 52.5961C35.0116 52.5737 34.911 52.5514 34.8103 52.5514C34.5979 52.5514 34.4191 52.5961 34.2626 52.6744C34.106 52.7526 33.9831 52.8644 33.8825 52.9874C33.793 53.1104 33.7148 53.2557 33.67 53.4234C33.6141 53.5799 33.603 53.7476 33.603 53.9041C33.6141 54.0159 33.6253 54.1165 33.6589 54.2171C33.6924 54.3065 33.7483 54.396 33.8154 54.4631C33.8825 54.5301 33.9719 54.586 34.0725 54.6196C34.1731 54.6531 34.2961 54.6755 34.4302 54.6755C34.665 54.6755 34.8551 54.6196 35.0227 54.4966C35.1793 54.3736 35.2911 54.2283 35.3581 54.0494H35.7047C35.6041 54.3401 35.4476 54.5637 35.2352 54.709C35.0116 54.8655 34.7321 54.9326 34.3855 54.9326C34.0278 54.9326 33.7595 54.8432 33.5583 54.6531C33.357 54.4631 33.2564 54.2171 33.2564 53.9041C33.2452 53.7029 33.2788 53.524 33.3458 53.3228C33.4017 53.1215 33.5135 52.9538 33.6365 52.8085C33.7595 52.652 33.9272 52.529 34.1172 52.4396C34.3184 52.3502 34.5309 52.2943 34.7768 52.2943C34.9333 52.2943 35.0786 52.3166 35.2128 52.3502C35.3469 52.3837 35.4699 52.4396 35.5594 52.5067C35.66 52.5737 35.7382 52.6632 35.7941 52.775C35.85 52.8868 35.8836 53.0097 35.8836 53.1551H35.537C35.5258 53.0768 35.5146 52.9874 35.4699 52.9091ZM36.7891 52.3837L36.9568 51.6235H37.3033L37.1356 52.3837H37.7058L37.6499 52.6408H37.0574L36.7108 54.2506C36.6885 54.3065 36.6885 54.3513 36.6885 54.3848C36.6773 54.4072 36.6773 54.4407 36.6773 54.4854C36.6773 54.5301 36.6997 54.5749 36.722 54.6084C36.7555 54.6419 36.8003 54.6643 36.8673 54.6643C37.0015 54.6643 37.1468 54.6419 37.281 54.6307L37.2251 54.8991C37.1692 54.9102 37.1021 54.9102 37.0462 54.9214C36.9903 54.9214 36.9232 54.9214 36.8673 54.9214C36.8114 54.9214 36.7444 54.9214 36.6773 54.9102C36.6102 54.8991 36.5543 54.8879 36.4984 54.8543C36.4425 54.832 36.409 54.7984 36.3755 54.7425C36.3419 54.6866 36.3196 54.6308 36.3196 54.5637C36.3196 54.5413 36.3196 54.4966 36.3307 54.4519C36.3307 54.4072 36.3419 54.3624 36.3531 54.2954L36.6997 52.6408H36.1742L36.2413 52.3837H36.7891V52.3837ZM11.7249 33.5241H13.4354L13.2342 34.329L13.2565 34.3514C13.5248 34.0384 13.8714 33.7924 14.3186 33.6135C14.7546 33.4347 15.2241 33.3452 15.7048 33.3452C16.1855 33.3452 16.6103 33.4011 16.9904 33.5353C17.3705 33.6583 17.6836 33.8483 17.9407 34.0831C18.1978 34.3178 18.3878 34.5973 18.5332 34.9215C18.6673 35.2457 18.7344 35.6035 18.7568 35.9724C18.7679 36.4531 18.7009 36.945 18.5555 37.4257C18.4102 37.9064 18.1754 38.3536 17.8512 38.7337C17.527 39.1138 17.1134 39.4268 16.6215 39.6728C16.1184 39.9187 15.5371 40.0417 14.8552 40.0417C14.285 40.0417 13.7708 39.9634 13.3236 39.8069C12.8764 39.6504 12.5187 39.3374 12.2616 38.8902H12.228L11.479 42.2217H9.7462L11.7249 33.5241ZM12.6417 37.3139C12.6528 37.5487 12.6976 37.7611 12.7646 37.9511C12.8317 38.1524 12.9435 38.3201 13.0777 38.4654C13.223 38.6107 13.4019 38.7337 13.6254 38.8119C13.8602 38.9014 14.1173 38.9349 14.4192 38.9349C14.8887 38.9349 15.2912 38.8455 15.6265 38.6778C15.9619 38.5213 16.2302 38.2977 16.4315 38.0182C16.6439 37.7499 16.8004 37.4481 16.8898 37.1127C16.9793 36.7773 17.0351 36.4419 17.0128 36.1065C17.0128 35.8718 16.9681 35.6594 16.901 35.4581C16.8227 35.2569 16.7221 35.0892 16.5768 34.9327C16.4203 34.7762 16.2414 34.6644 16.029 34.575C15.8166 34.4855 15.5483 34.452 15.2464 34.452C14.7881 34.452 14.3856 34.5414 14.0503 34.7091C13.7149 34.8768 13.4466 35.1116 13.2342 35.3799C13.0329 35.6482 12.8764 35.9612 12.787 36.2966C12.6752 36.6431 12.6305 36.9785 12.6417 37.3139ZM22.7925 40.0529C21.6969 40.0529 20.8473 39.8181 20.2324 39.3374C19.6288 38.8567 19.3157 38.1747 19.2822 37.2804C19.2598 36.7549 19.3605 36.2519 19.5505 35.7823C19.7406 35.3128 20.0312 34.8992 20.4225 34.5303C20.8026 34.1725 21.2609 33.8818 21.7976 33.6694C22.3453 33.457 22.9602 33.3564 23.631 33.3564C24.7266 33.3564 25.5762 33.5912 26.1799 34.0495C26.7947 34.5191 27.1078 35.1898 27.1301 36.0842C27.1525 36.6432 27.0519 37.1686 26.8618 37.6493C26.6718 38.13 26.3923 38.5548 26.0234 38.9126C25.6433 39.2703 25.1737 39.5498 24.6371 39.751C24.1117 39.9522 23.4856 40.0529 22.7925 40.0529ZM23.5639 34.4632C23.1167 34.4632 22.7366 34.5526 22.4124 34.7315C22.0882 34.9103 21.8199 35.1339 21.6075 35.4134C21.3951 35.6817 21.2386 35.9947 21.1492 36.3189C21.0485 36.6543 21.0038 36.9785 21.015 37.3027C21.0374 37.7723 21.1827 38.1635 21.4845 38.4654C21.7864 38.7784 22.2447 38.9349 22.8596 38.9349C23.3068 38.9349 23.6869 38.8455 24.0111 38.6666C24.3353 38.4877 24.6036 38.2642 24.816 37.9959C25.0284 37.7164 25.1849 37.4033 25.2855 37.068C25.375 36.7326 25.4197 36.3972 25.4085 36.0842C25.3973 35.6146 25.2408 35.2234 24.9501 34.9215C24.6595 34.6085 24.2011 34.4632 23.5639 34.4632ZM28.8182 33.5241H30.4504L30.1709 34.765L30.1933 34.7874C30.3162 34.6197 30.4616 34.4408 30.6293 34.2731C30.7969 34.1054 30.987 33.9489 31.1994 33.8148C31.4006 33.6806 31.6354 33.5688 31.8813 33.4794C32.1161 33.39 32.3844 33.3564 32.6527 33.3564C32.7869 33.3564 32.9322 33.3564 33.0664 33.3564C33.2005 33.3676 33.3347 33.3788 33.48 33.39L33.1446 34.7315C33.0552 34.7091 32.9434 34.6979 32.8428 34.6868C32.7422 34.6756 32.6415 34.6756 32.5409 34.6756C32.0938 34.6756 31.7137 34.7315 31.3895 34.8656C31.0653 34.9886 30.7969 35.1675 30.5734 35.3911C30.3498 35.6146 30.1709 35.8606 30.0368 36.1513C29.9138 36.4419 29.802 36.7326 29.7349 37.0568L29.0865 39.874H27.3649L28.8182 33.5241ZM35.8836 31.6124H37.5605L37.1245 33.5241H38.6896L38.4548 34.575H36.8897L36.1742 37.6828C36.1407 37.8282 36.1071 37.9511 36.0848 38.0853C36.0624 38.2083 36.0401 38.3089 36.0512 38.376C36.0512 38.5213 36.096 38.6331 36.1742 38.7113C36.2525 38.8008 36.4202 38.8343 36.6885 38.8343C36.8114 38.8343 36.9568 38.8343 37.1245 38.8231C37.281 38.8231 37.4375 38.8008 37.6052 38.7672L37.3481 39.7957C37.1245 39.8404 36.8897 39.874 36.6438 39.8963C36.3866 39.9187 36.1519 39.9299 35.9283 39.9299C35.6153 39.9299 35.3581 39.8963 35.1569 39.8404C34.9557 39.7734 34.788 39.6839 34.6762 39.5721C34.5532 39.4492 34.475 39.3374 34.4302 39.192C34.3743 39.0467 34.352 38.9014 34.3408 38.7449C34.3408 38.6219 34.352 38.4877 34.3632 38.3424C34.3855 38.1859 34.4079 38.0853 34.4191 38.0406L35.224 34.5638H33.8601L34.0949 33.5129H35.4587L35.8836 31.6124ZM8.47175 35.3799C8.44939 35.0669 8.30406 34.8209 8.00222 34.6868C7.71156 34.5303 7.34264 34.4632 6.8731 34.4632C6.70541 34.4632 6.53772 34.4744 6.39239 34.4967C6.23588 34.5191 6.09055 34.5638 5.96757 34.6197C5.8446 34.6756 5.74399 34.765 5.66573 34.8656C5.59866 34.9662 5.56512 35.1004 5.56512 35.2569C5.5763 35.4022 5.64337 35.5252 5.78871 35.6146C5.92286 35.7041 6.10173 35.7823 6.32532 35.8494C6.56008 35.9165 6.80603 35.9836 7.07433 36.0506C7.34264 36.1065 7.6333 36.1848 7.9016 36.2631C8.13637 36.3413 8.35996 36.4196 8.59473 36.509C8.81831 36.5984 9.00836 36.7102 9.18723 36.8444C9.35492 36.9674 9.48907 37.135 9.60087 37.3139C9.70148 37.4928 9.75738 37.7164 9.76856 37.9623C9.77974 38.3312 9.67912 38.6554 9.48907 38.9126C9.29903 39.1809 9.0419 39.3933 8.7177 39.561C8.40468 39.7398 8.03576 39.8628 7.62212 39.9299C7.20848 40.0193 6.78367 40.0529 6.35885 40.0529C5.9005 40.0529 5.47568 40.0193 5.0844 39.9522C4.69313 39.8852 4.34657 39.7622 4.04472 39.5945C3.74288 39.4268 3.50811 39.2032 3.32924 38.9126C3.15037 38.6331 3.04976 38.2753 3.0274 37.8393H4.65959C4.64841 38.2418 4.8161 38.5325 5.15148 38.689C5.48686 38.8567 5.91168 38.9461 6.42593 38.9461C6.6048 38.9461 6.79485 38.9237 6.9849 38.9014C7.18613 38.879 7.35382 38.8231 7.51033 38.756C7.66684 38.7002 7.80099 38.5995 7.9016 38.4877C8.00222 38.3648 8.05812 38.2194 8.04694 38.0406C8.04694 37.8841 7.96868 37.7387 7.81217 37.6381C7.66684 37.5263 7.47679 37.4369 7.2532 37.3586C7.01843 37.2804 6.76131 37.2021 6.47065 37.1462C6.17998 37.0791 5.9005 37.0009 5.63219 36.9226C5.39743 36.8556 5.17384 36.7773 4.97261 36.6879C4.7602 36.5984 4.57015 36.4866 4.41364 36.3637C4.24595 36.2407 4.1118 36.0842 4.02237 35.9165C3.93293 35.7488 3.87703 35.5476 3.86585 35.3016C3.85467 34.9662 3.94411 34.6644 4.12298 34.4185C4.30185 34.1725 4.53662 33.9713 4.83846 33.8148C5.1403 33.6583 5.47568 33.5465 5.85578 33.4794C6.23588 33.4011 6.62716 33.3676 7.02961 33.3676C7.45443 33.3676 7.85689 33.39 8.22581 33.457C8.60591 33.5129 8.93011 33.6247 9.20959 33.7812C9.48907 33.9377 9.71266 34.1502 9.86917 34.4073C10.0257 34.6644 10.1151 34.9998 10.1151 35.3911H8.47175V35.3799ZM39.2038 19.4157C40.4447 19.7511 41.7974 19.8965 42.893 19.7511C44.9947 29.0747 52.9656 28.7617 45.263 41.2043C45.2183 41.2602 45.1401 41.2267 45.1513 41.1484C49.3435 27.4314 39.9752 28.7282 39.2038 19.4157ZM50.0478 10.0698C52.3731 8.65002 54.5643 7.44265 54.0947 1.52876C54.0836 1.46169 53.9941 1.45051 53.9718 1.51758C53.0998 6.00051 50.9086 6.95076 48.438 8.14695C49.187 8.82889 49.7572 9.45493 50.0478 10.0698ZM45.4643 2.6467C44.1116 2.6467 43.0048 3.75346 43.0048 5.10616C43.0048 6.47004 44.1116 7.5768 45.4643 7.5768C46.8282 7.5768 47.9349 6.47004 47.9349 5.10616C47.9349 3.76464 46.8282 2.6467 45.4643 2.6467ZM39.964 25.9333C37.5157 25.0501 34.6315 25.0613 30.4504 26.414C30.3833 26.4364 30.3945 26.537 30.4727 26.5258C39.3827 25.9557 39.2038 29.8349 42.9266 29.7567C42.0657 28.3704 40.9702 27.2189 39.964 25.9333Z" fill="#333333"/>
</svg>
