<svg width="40" height="40" viewBox="0 0 40 40" fill="none" xmlns="http://www.w3.org/2000/svg">
<path d="M39.5371 0.809631H0.489197V39.8576H39.5371V0.809631Z" fill="white"/>
<path d="M39.5371 39.8576H0.489197L0.507374 5.08134L0.489197 0.809631H39.5371V39.8576Z" fill="#333333"/>
<path d="M34.5154 15.3772C34.2675 17.8889 33.4778 20.317 32.2008 22.494L29.1497 15.3374C26.4278 15.188 24.9251 16.2955 24.3939 16.8623C24.2572 16.3303 23.9523 15.8567 23.5248 15.5118L21.9238 16.5998C22.9687 17.576 22.9303 19.1843 22.9303 19.9512V24.3393H24.95V19.8778C24.95 18.7535 25.6543 17.7167 27.742 17.3626L30.6982 24.2855C29.874 25.0349 28.8749 25.5655 27.7925 25.8286L28.2806 27.8557C31.4731 27.0835 33.9297 24.6127 35.3893 20.7106C36.0199 18.9922 36.4271 17.2 36.6011 15.3778L34.5154 15.3772Z" fill="white"/>
<path d="M11.0806 15.1839L7.80598 22.6468C6.4375 20.4704 5.6518 17.9786 5.52437 15.4108H3.43935C3.52155 17.233 3.87975 19.0322 4.50172 20.7469C4.95766 22.0462 5.608 23.2688 6.43055 24.373H9.35309L12.9886 16.006L11.0806 15.1839Z" fill="white"/>
<path d="M17.4394 15.2506C16.1748 15.2629 14.967 15.777 14.0816 16.6799C13.1961 17.5828 12.7056 18.8004 12.7179 20.0649C12.7302 21.3294 13.2444 22.5373 14.1473 23.4227C15.0501 24.3082 16.2677 24.7987 17.5323 24.7864C18.3325 24.8317 19.1313 24.676 19.8558 24.3333C20.5804 23.9906 21.2075 23.4719 21.6801 22.8245L20.0865 21.6558C19.7995 22.0288 19.4289 22.3292 19.0045 22.5328C18.5802 22.7364 18.1139 22.8374 17.6433 22.8279C17.0294 22.8786 16.4184 22.7012 15.9271 22.3295C15.4358 21.9579 15.0989 21.4181 14.9807 20.8136H21.841C21.9155 20.4893 21.9506 20.1572 21.9454 19.8246C21.9816 19.2203 21.8905 18.6151 21.6778 18.0482C21.4651 17.4814 21.1356 16.9656 20.7108 16.5343C20.2859 16.103 19.7751 15.7659 19.2115 15.5447C18.6479 15.3236 18.0442 15.2234 17.4394 15.2506V15.2506ZM14.9813 19.1507C15.1041 18.5769 15.4296 18.0667 15.8982 17.7137C16.3668 17.3606 16.9469 17.1884 17.5323 17.2286C17.8053 17.2026 18.0808 17.2323 18.342 17.3159C18.6033 17.3995 18.8448 17.5352 19.0521 17.715C19.2593 17.8947 19.4279 18.1146 19.5476 18.3614C19.6673 18.6081 19.7357 18.8767 19.7486 19.1507H14.9813Z" fill="white"/>
</svg>
