<svg width="77" height="32" viewBox="0 0 77 32" fill="none" xmlns="http://www.w3.org/2000/svg">
<path d="M48.3694 8.66748V11.5166H46.6573V8.66748L44.1404 4.0552H46.0952L47.5134 6.92989L48.9315 4.0552H50.8608L48.3694 8.66748ZM50.222 7.79869C50.2347 6.22719 51.1802 4.82178 52.6367 4.22129C54.0932 3.6208 55.7541 3.96576 56.8657 5.07731C57.9772 6.18886 58.2967 7.86257 57.6962 9.31908C57.0957 10.7756 55.6775 11.7083 54.106 11.7083C53.0711 11.721 52.0745 11.3122 51.3463 10.5839C50.618 9.85569 50.2092 8.85913 50.222 7.82424V7.79869V7.79869ZM56.2908 7.79869C56.278 6.91711 55.7286 6.13775 54.9109 5.81834C54.0932 5.49893 53.1605 5.69058 52.5473 6.31662C51.934 6.94267 51.7551 7.87534 52.1001 8.69304C52.4451 9.49795 53.2372 10.0346 54.106 10.0346C54.6937 10.0473 55.2559 9.81736 55.6647 9.39574C56.0736 8.97412 56.2908 8.39918 56.2524 7.81146H56.2908V7.79869ZM58.4627 9.12743V4.06797H60.1748V8.96134C60.1748 9.5235 60.4431 10.0218 61.3374 10.0218C62.2318 10.0218 62.5001 9.5235 62.5001 8.96134V4.0552H64.2249V9.11466C64.2249 10.7117 62.9856 11.6827 61.3502 11.6827C59.7021 11.6827 58.4627 10.7245 58.4627 9.12743ZM70.4342 5.70335H68.5178V11.5294H66.8057V5.70335H64.8765V4.06797H70.4342V5.70335ZM76.8608 4.06797V11.5294H75.136V8.56527H72.8234V11.5294H71.1114V4.06797H72.8234V6.91711H75.1615V4.06797H76.8608ZM44.8431 19.6041L46.2996 18.7481C46.5423 19.3997 47.1812 19.8213 47.8711 19.783C48.676 19.783 48.8804 19.4636 48.8804 19.1697C48.8804 18.7225 48.4588 18.5437 47.3345 18.2242C46.2102 17.9048 45.1497 17.3938 45.1497 15.9756C45.1497 14.5574 46.3635 13.6758 47.6411 13.6758C48.8038 13.6375 49.877 14.3019 50.3625 15.3623L48.9188 16.2183C48.676 15.6817 48.3055 15.3368 47.6411 15.3368C47.1045 15.3368 46.8362 15.6051 46.8362 15.8989C46.8362 16.2311 47.0151 16.4867 48.1905 16.8444C49.3148 17.1766 50.5925 17.5599 50.5925 19.1314C50.5925 20.5751 49.4426 21.4183 47.8328 21.4183C46.2613 21.4183 45.2519 20.6773 44.8175 19.5785H44.8431V19.6041ZM56.6229 16.41C56.6229 17.0999 56.3291 17.7515 55.8436 18.237C55.3453 18.7097 54.6809 18.9781 53.991 18.9525H52.8667V21.3161H51.1546V13.8547H53.991C54.6809 13.8419 55.3581 14.0975 55.8564 14.583C56.3546 15.0685 56.6229 15.7328 56.6229 16.4355V16.41ZM54.9109 16.41C54.9492 15.8862 54.5404 15.439 54.0166 15.439H52.8922V17.3299H54.0166C54.5276 17.3299 54.9365 16.8955 54.9109 16.3844V16.41ZM57.0573 17.5471C57.0573 15.9756 58.0028 14.5574 59.4593 13.9569C60.9158 13.3564 62.5895 13.6886 63.7011 14.8002C64.8126 15.9117 65.1448 17.5854 64.5443 19.0419C63.9438 20.4984 62.5256 21.4439 60.9541 21.4439C59.9193 21.4567 58.9355 21.0606 58.1944 20.3324C57.4662 19.6041 57.0573 18.6203 57.0573 17.5854V17.5471ZM63.1261 17.5471C63.1006 16.6655 62.5512 15.8989 61.7335 15.5795C60.9158 15.2601 59.9959 15.4645 59.3826 16.0906C58.7694 16.7166 58.6033 17.6493 58.9355 18.4542C59.2804 19.2591 60.0726 19.783 60.9414 19.783C61.5291 19.7957 62.104 19.5658 62.5129 19.1314C62.9217 18.7097 63.1389 18.122 63.1006 17.5343H63.1261V17.5471ZM67.9556 18.8503H67.1507V21.3034H65.4387V13.8419H68.4028C69.0927 13.8419 69.7443 14.1102 70.2298 14.5957C70.7153 15.0812 70.9836 15.7456 70.9709 16.4355C70.9581 17.3427 70.4342 18.1731 69.6166 18.5948L71.1881 21.3417H69.3482L67.9556 18.8503ZM67.1507 17.3554H68.4156C69.5016 17.1894 69.5016 15.6179 68.4156 15.439H67.1507V17.3554ZM76.8608 15.4773H74.9315V21.3034H73.2195V15.4645H71.303V13.8419H76.8352L76.8608 15.4773ZM50.3753 25.2641H48.4588V31.0901H46.734V25.2513H44.8048V23.6287H50.3625L50.3753 25.2641ZM54.0166 28.6115H53.2116V31.0901H51.4996V23.6287H54.4893C55.1664 23.6287 55.8052 23.897 56.2908 24.3697C56.7635 24.8424 57.0318 25.494 57.0318 26.1712C57.019 27.0911 56.508 27.9343 55.6775 28.3559L57.249 31.1029H55.4092L54.0166 28.6115ZM53.2116 27.1294H54.4893C55.588 26.9633 55.588 25.3918 54.4893 25.2129H53.2116V27.1294ZM58.1944 28.6626V23.6287H59.9193V28.5348C59.9193 29.097 60.162 29.5697 61.0947 29.5697C62.0146 29.5697 62.2573 29.097 62.2573 28.5348V23.6287H63.9694V28.6626C63.9694 30.2596 62.7301 31.2179 61.0947 31.2179C59.4593 31.2179 58.22 30.2469 58.22 28.6626H58.1944ZM64.851 29.3781L66.3075 28.522C66.5502 29.1736 67.189 29.5953 67.879 29.5569C68.6839 29.5569 68.8883 29.2375 68.8883 28.9437C68.8883 28.4965 68.4667 28.3176 67.3424 27.9982C66.218 27.6788 65.1576 27.1422 65.1576 25.724C65.1576 24.3058 66.3713 23.4498 67.649 23.4498C68.8244 23.4115 69.8976 24.0758 70.3959 25.1363L68.9522 25.9668C68.6839 25.4429 68.3389 25.1107 67.649 25.1107C67.1124 25.1107 66.8568 25.379 66.8568 25.6729C66.8568 26.0051 67.0357 26.2606 68.2112 26.5928C69.3866 26.925 70.5876 27.3338 70.5876 28.9053C70.5876 30.3491 69.4632 31.1923 67.8279 31.1923C66.2691 31.2179 65.2598 30.4768 64.851 29.3781ZM76.8608 25.2641H74.9315V31.0901H73.2195V25.2513H71.303V23.6287H76.8352L76.8608 25.2641ZM38.1738 29.7358C38.1866 29.7997 38.161 29.8763 38.1099 29.9147C38.046 29.953 37.9694 29.9658 37.8799 29.953H37.7649V29.5442H37.8544C37.9183 29.5442 37.9949 29.5441 38.0588 29.5697C38.1227 29.5953 38.1738 29.6591 38.1738 29.7358ZM38.391 29.9658C38.4549 29.9147 38.506 29.8252 38.506 29.7358C38.5188 29.5953 38.4549 29.4675 38.3271 29.4036C38.2377 29.3653 38.1482 29.3397 38.0588 29.3397H37.3817V30.6813H37.7649V30.2085H37.9055C37.9438 30.1957 37.9949 30.1957 38.046 30.2085C38.0971 30.2341 38.1227 30.2724 38.1355 30.3235C38.1482 30.3874 38.161 30.4385 38.161 30.5024C38.161 30.5663 38.1738 30.6174 38.1866 30.6813H38.5188V30.6301C38.5188 30.6174 38.5188 30.6174 38.5188 30.6046C38.5188 30.5918 38.5188 30.579 38.5188 30.5663V30.4257C38.5315 30.3107 38.4804 30.2085 38.4038 30.1319C38.3399 30.0808 38.276 30.0552 38.1993 30.0424C38.276 30.0297 38.3527 30.0041 38.4293 29.953M38.9532 30.0041C38.9532 30.2724 38.8509 30.5279 38.6593 30.7196C38.2632 31.1156 37.6116 31.1156 37.2156 30.7196C36.8195 30.3235 36.8195 29.6719 37.2156 29.2758C37.6116 28.867 38.2632 28.867 38.6593 29.2758C38.8509 29.4803 38.9659 29.7358 38.9532 30.0041ZM39.1831 30.0041C39.1704 28.9437 37.9055 28.3815 37.1133 29.1098C36.8578 29.3397 36.7173 29.6719 36.7301 30.0041C36.7301 31.6523 39.2087 31.6523 39.2087 30.0041M4.02242 11.6572C5.56837 11.6572 6.94822 10.7373 7.54871 9.30631C8.13643 7.88812 7.82979 6.23996 6.7438 5.14119C5.6578 4.04242 4.02242 3.71023 2.59146 4.28517C1.1605 4.87289 0.215047 6.25274 0.202271 7.79869C0.202271 9.90679 1.91431 11.6188 4.02242 11.6188M29.4858 10.354C31.0318 10.354 32.4244 9.42129 33.0121 8.00311C33.5998 6.57215 33.2804 4.93677 32.1944 3.838C31.1084 2.73922 29.4603 2.40704 28.0421 2.99475C26.6111 3.58247 25.6785 4.96232 25.6657 6.50827C25.6657 8.61638 27.3777 10.3284 29.4858 10.3284M15.8278 8.36085C17.3738 8.36085 18.7664 7.42817 19.3541 5.99721C19.9418 4.56625 19.6224 2.93087 18.5237 1.8321C17.4249 0.746104 15.7895 0.413917 14.3585 1.00163C12.9276 1.58935 11.9949 2.98198 11.9949 4.52792C12.0077 6.64881 13.7069 8.36085 15.8278 8.36085ZM39.2087 12.6537C39.2087 12.6409 39.1959 12.6282 39.1831 12.6282L14.0775 8.92301C14.0391 8.91024 14.0136 8.97412 14.0519 8.9869C16.0323 10.3923 17.5526 12.3471 18.4598 14.6085C18.4726 14.6085 18.4726 14.6085 18.4853 14.6085C22.7015 13.8036 26.8794 16.18 28.3232 20.2174C29.7797 24.2547 28.0804 28.752 24.3242 30.8218C24.2986 30.8218 24.2986 30.8601 24.3242 30.8601C26.2917 31.4223 28.3998 31.2051 30.2141 30.2596L30.5079 30.1063L30.5718 30.068C32.4627 28.9437 33.817 27.0911 34.3025 24.9446C34.788 22.7982 34.3664 20.5496 33.1399 18.7097C33.1399 18.697 33.1527 18.6842 33.1654 18.6842L39.1959 19.5147C39.1959 19.5019 39.1959 19.5019 39.1959 19.4891L39.2087 12.6537ZM20.1207 15.1707C19.648 15.1707 19.188 15.2218 18.7281 15.3112L18.8686 15.7584C18.8686 15.7712 18.8686 15.7839 18.8686 15.7967C18.9964 16.2311 19.0858 16.6783 19.1625 17.1255L19.2008 17.266C19.2008 17.381 19.2008 17.496 19.2391 17.5854C19.2902 17.6749 19.2391 17.7643 19.2647 17.8537L19.2902 18.122L19.3286 18.4798V20.2046L19.2647 20.7668L19.2391 20.9201L19.1497 21.5078L19.1241 21.6483L18.9708 22.3255C20.1079 22.5555 21.1045 23.2326 21.7178 24.2164C22.331 25.2002 22.5099 26.3884 22.216 27.5127C21.9222 28.637 21.1812 29.5825 20.159 30.1319C19.1369 30.6813 17.9359 30.7962 16.8372 30.4257V30.4768C19.0475 31.4606 21.5772 31.3967 23.7237 30.3107C25.8829 29.212 27.416 27.2061 27.9271 24.8424C28.4254 22.4788 27.8377 20.0129 26.3173 18.1348C24.7969 16.2567 22.5099 15.1707 20.0952 15.1707M18.6386 19.1697C18.6003 15.5412 16.9138 12.1171 14.0519 9.88124C14.0391 9.88124 14.0264 9.89402 14.0264 9.90679C14.8696 10.865 15.189 12.181 14.8824 13.4203C14.5757 14.6596 13.6814 15.669 12.4932 16.1289C11.305 16.5889 9.96345 16.4355 8.90301 15.7328C7.84257 15.0174 7.19097 13.8419 7.16542 12.5643H1.07107C1.07107 14.1741 1.45436 15.7712 2.19539 17.2021L2.60424 17.8793C4.43127 20.8179 7.65092 22.5938 11.1006 22.6066H11.2155C11.2283 22.6066 11.2283 22.6066 11.2411 22.6066C11.3816 23.1176 11.4583 23.6542 11.4711 24.1781C11.4711 27.8832 8.46861 30.8729 4.77623 30.8729C4.29073 30.8729 3.80522 30.8218 3.33249 30.7196V30.7451C6.93544 31.8056 10.8323 31.1029 13.8475 28.8542C16.8627 26.6056 18.6386 23.0665 18.6386 19.2975V19.1697Z" fill="#333333"/>
</svg>
